<svg height="512" viewBox="0 0 58 58" width="512" xmlns="http://www.w3.org/2000/svg"><g id="Page-1" fill="none" fill-rule="evenodd"><g id="022---Cloud-Offline" fill-rule="nonzero" transform="translate(0 -1)"><path id="Shape" d="m58 26c0 6.0751322-4.9248678 11-11 11h-36c-6.07513225 0-11-4.9248678-11-11s4.92486775-11 11-11c.623565-.0030798 1.2461215.0504735 1.86.16 1.427149-3.0326141 4.4212431-5.02097 7.77-5.16 1.9678376-6.08875505 8.0738821-9.84005753 14.3946544-8.84348326s10.976386 6.4446301 10.9753456 12.84348326c.019924.3497165.019924.7002835 0 1.05.34 0 .7-.05 1-.05 6.0751322 0 11 4.9248678 11 11z" fill="#46b29d"/><path id="Shape" d="m58 26c0 6.0751322-4.9248678 11-11 11h-5.11c0-24.93-21.26-27-21.26-27 1.9678376-6.08875505 8.0738821-9.84005753 14.3946544-8.84348326s10.976386 6.4446301 10.9753456 12.84348326c.019924.3497165.019924.7002835 0 1.05.34 0 .7-.05 1-.05 6.0751322 0 11 4.9248678 11 11z" fill="#81ccb8"/><path id="Shape" d="m39.83 9.15c-.2923118.00001923-.5699973-.12786225-.76-.35-1.5177498-1.77444941-3.7349995-2.79723347-6.07-2.8-.5522847 0-1-.44771525-1-1s.4477153-1 1-1c2.9180174.00022682 5.6903707 1.27499794 7.59 3.49.1724034.201559.2576705.46335301.2370412.72778336-.0206293.26443034-.145465.50983336-.3470412.68221664-.179713.15852397-.4103774.24724105-.65.25z" fill="#fff"/><path id="Shape" d="m48 40c.0007994 8.5964545-5.7704305 16.122484-14.072798 18.3517717-8.3023675 2.2292878-17.0672251-1.3936236-21.3725796-8.834252-4.30535456-7.4406285-3.07846857-16.8450406 2.9916879-22.9320949 6.0701565-6.0870543 15.4711216-7.3400787 22.9236897-3.0554248 5.8949731 3.3891564 9.5293677 9.6702141 9.53 16.47z" fill="#df4d60"/><path id="Shape" d="m41 33c-.0006306 6.7815462-3.615719 13.048646-9.4857764 16.4444958-5.8700574 3.3958499-13.1050632 3.4055697-18.9842236.0255042-4.27699687-7.4435938-3.03128567-16.8304627 3.0391258-22.9008742 6.0704115-6.0704115 15.4572804-7.3161227 22.9008742-3.0391258 1.6614756 2.8792415 2.5341592 6.1457685 2.53 9.47z" fill="#ff5364"/><path id="Shape" d="m31.83 40 6.58-6.59c.6795536-.7935206.6338645-1.9763883-.1048736-2.7151264s-1.9216058-.7844272-2.7151264-.1048736l-6.59 6.58-6.59-6.58c-.7935206-.6795536-1.9763883-.6338645-2.7151264.1048736s-.7844272 1.9216058-.1048736 2.7151264l6.58 6.59-6.58 6.59c-.5707523.4887798-.8193639 1.2562368-.6436203 1.9868379.1757436.7306012.7461812 1.3010388 1.4767824 1.4767824.7306011.1757436 1.4980581-.072868 1.9868379-.6436203l6.59-6.58 6.59 6.58c.7935206.6795536 1.9763883.6338645 2.7151264-.1048736s.7844272-1.9216058.1048736-2.7151264z" fill="#fff"/></g></g></svg>