<svg xmlns="http://www.w3.org/2000/svg" viewBox="0 0 48 48"><symbol id="New_Symbol_14" viewBox="-6.5 -6.5 13 13"><path fill="#ffd4c3" stroke="#504b46" stroke-linecap="round" stroke-linejoin="round" stroke-miterlimit="10" d="M0-6c2.2 0 4.1 1.5 4.7 3.5C6.3-2.5 6.4 0 5 0v1c0 2.8-2.2 5-5 5s-5-2.2-5-5V0c-1.4 0-1.3-2.5.2-2.5C-4.1-4.5-2.2-6 0-6z"/><circle cx="-1.6" cy="-.1" r=".1" fill="#ffc258"/><path fill="#4f4b45" d="M-1.6.5c-.3 0-.6-.3-.6-.6s.2-.7.6-.7c.3 0 .6.3.6.7s-.3.6-.6.6z"/><circle cx="1.6" cy="-.1" r=".1" fill="#ffc258"/><path fill="#4f4b45" d="M1.6.5C1.3.5 1 .2 1-.1s.3-.6.6-.6.6.3.6.6-.2.6-.6.6z"/><circle cx="-3" cy="-1.5" r=".5" fill="#fabfa5"/><circle cx="3" cy="-1.5" r=".5" fill="#fabfa5"/><path fill="none" stroke="#504b46" stroke-linecap="round" stroke-linejoin="round" stroke-miterlimit="10" d="M-1.2-3c.8-.5 1.7-.5 2.5 0"/></symbol><g id="Icons"><g id="XMLID_1984_"><path id="XMLID_2723_" fill="#f7e5c6" d="M37.8 11.9s-1.8-2-.8-4.4c.8-2.1 2.3-2.9 3.6-3.6 1.5-.8 1.6-2.4 1.6-2.4s3.3 4.6 1.6 8.5c-1.6 3.7-4 2.8-4 2.8l-2-.9z"/><path id="XMLID_2722_" fill="#fff5e3" d="M40.6 3.9c-1.3.7-2.8 1.5-3.6 3.6.8-.3 2-.5 3.7.1 1.6.6 2.5 1.6 3 2.6 0-.1.1-.1.1-.2 1.7-3.9-1.6-8.5-1.6-8.5s-.1 1.5-1.6 2.4z"/><path id="XMLID_2721_" fill="none" stroke="#45413c" stroke-linecap="round" stroke-linejoin="round" stroke-miterlimit="10" d="M37.8 11.9s-1.8-2-.8-4.4c.8-2.1 2.3-2.9 3.6-3.6 1.5-.8 1.6-2.4 1.6-2.4s3.3 4.6 1.6 8.5c-1.6 3.7-4 2.8-4 2.8l-2-.9z"/><path id="XMLID_2720_" fill="none" stroke="#45413c" stroke-linecap="round" stroke-linejoin="round" stroke-miterlimit="10" d="M39.5 12.5s1.3-.8 2.3-3.4"/><path id="XMLID_2719_" fill="none" stroke="#45413c" stroke-linecap="round" stroke-linejoin="round" stroke-miterlimit="10" d="M38.6 12.2s-.3-2 .4-3.7"/><ellipse id="XMLID_2718_" cx="24.2" cy="45.3" fill="#45413c" opacity=".15" rx="11.5" ry="1.5"/><path id="XMLID_2715_" fill="#f0d5a8" d="M21.3 6.4c-9.7 0-17.5 4.7-17.5 13v.1c0 2.9 3.2 4.6 5.7 3.2l3.1-1.7c1-.6 2.1.6 1.5 1.5l-4.3 7c-1.1 1.7-.4 4 1.4 4.9 2.5 1.2 5.5 2 8.6 2 9.7 0 17.5-6.7 17.5-15s-6.4-15-16-15zm-3 26.5c-1.7 0-3-1-3-2.2 0-1.2 1.3-2.2 3-2.2s3 1 3 2.2c0 1.2-1.4 2.2-3 2.2z"/><g id="XMLID_2713_"><path id="XMLID_2714_" fill="#f7e5c6" d="M21.3 9.4c9 0 15.2 5.9 15.9 13.4 0-.5.1-.9.1-1.4 0-8.3-6.3-15-16-15s-17.5 4.7-17.5 13v.1c0 .4.1.7.2 1.1 1-7.2 8.4-11.2 17.3-11.2z"/></g><path id="XMLID_2710_" fill="none" stroke="#45413c" stroke-linecap="round" stroke-linejoin="round" stroke-miterlimit="10" d="M21.3 6.4c-9.7 0-17.5 4.7-17.5 13v.1c0 2.9 3.2 4.6 5.7 3.2l3.1-1.7c1-.6 2.1.6 1.5 1.5l-4.3 7c-1.1 1.7-.4 4 1.4 4.9 2.5 1.2 5.5 2 8.6 2 9.7 0 17.5-6.7 17.5-15s-6.4-15-16-15zm-3 26.5c-1.7 0-3-1-3-2.2 0-1.2 1.3-2.2 3-2.2s3 1 3 2.2c0 1.2-1.4 2.2-3 2.2z"/><ellipse id="XMLID_2709_" cx="28.6" cy="27.1" fill="#ff6242" rx="3.2" ry="2.2"/><ellipse id="XMLID_2708_" cx="30" cy="17.1" fill="#ff8a14" rx="2.8" ry="2.3"/><ellipse id="XMLID_2707_" cx="11.5" cy="14.1" fill="#6dd627" rx="2.7" ry="2.2"/><ellipse id="XMLID_2706_" cx="21.2" cy="11.6" fill="#ffe500" rx="2.9" ry="2.2"/><path id="XMLID_2011_" fill="#e04122" d="M28.6 26.2c1.4 0 2.6.7 3 1.6.1-.2.2-.4.2-.7 0-1.2-1.4-2.2-3.1-2.2s-3.1 1-3.1 2.2c0 .2.1.5.2.7.2-.9 1.4-1.6 2.8-1.6z"/><path id="XMLID_2010_" fill="#eb6d00" d="M30 16.2c1.2 0 2.3.7 2.6 1.6.1-.2.1-.4.1-.7 0-1.3-1.2-2.3-2.8-2.3s-2.8 1-2.8 2.3c0 .2.1.5.1.7.6-1 1.6-1.6 2.8-1.6z"/><path id="XMLID_2009_" fill="#46b000" d="M11.5 13.2c1.2 0 2.2.7 2.6 1.6.1-.2.1-.4.1-.7 0-1.2-1.2-2.2-2.7-2.2s-2.7 1-2.7 2.2c0 .2.1.5.1.7.4-.9 1.4-1.6 2.6-1.6z"/><path id="XMLID_2008_" fill="#ebcb00" d="M21.2 10.7c1.3 0 2.4.7 2.8 1.6.1-.2.2-.4.2-.7 0-1.2-1.3-2.2-2.9-2.2-1.6 0-2.9 1-2.9 2.2 0 .2.1.5.2.7.2-.9 1.3-1.6 2.6-1.6z"/><ellipse id="XMLID_2007_" cx="28.6" cy="27.1" fill="none" stroke="#45413c" stroke-linecap="round" stroke-linejoin="round" stroke-miterlimit="10" rx="3.2" ry="2.2"/><ellipse id="XMLID_2006_" cx="30" cy="17.1" fill="none" stroke="#45413c" stroke-linecap="round" stroke-linejoin="round" stroke-miterlimit="10" rx="2.8" ry="2.3"/><ellipse id="XMLID_2005_" cx="11.5" cy="14.1" fill="none" stroke="#45413c" stroke-linecap="round" stroke-linejoin="round" stroke-miterlimit="10" rx="2.7" ry="2.2"/><ellipse id="XMLID_2004_" cx="21.2" cy="11.6" fill="none" stroke="#45413c" stroke-linecap="round" stroke-linejoin="round" stroke-miterlimit="10" rx="2.9" ry="2.2"/><path id="XMLID_2003_" fill="#4acfff" d="M28.9 44.6c-.8-.3-1.3-1.1-1.1-1.9l2.9-12.5c.9-3.7 2.1-7.4 3.6-10.9l.5-1.2c.5-1 1.6-1.6 2.7-1.2 1.1.3 1.7 1.4 1.5 2.6l-.2 1.3c-.7 3.8-1.8 7.4-3.2 11l-4.7 11.9c-.3.7-1.2 1.1-2 .9z"/><path id="XMLID_2002_" fill="#80ddff" d="M29.6 43.7l2.9-12.5c.9-3.7 2.1-7.4 3.6-10.9l.5-1.2c.4-.9 1.3-1.4 2.2-1.3-.3-.4-.7-.8-1.2-1-1.1-.3-2.3.2-2.7 1.2l-.5 1.2c-1.5 3.5-2.8 7.1-3.6 10.9l-2.9 12.5c-.2.8.3 1.7 1.1 1.9.2.1.5.1.7 0-.2-.1-.2-.5-.1-.8z"/><path id="XMLID_2001_" fill="none" stroke="#45413c" stroke-linecap="round" stroke-linejoin="round" stroke-miterlimit="10" d="M28.9 44.6c-.8-.3-1.3-1.1-1.1-1.9l2.9-12.5c.9-3.7 2.1-7.4 3.6-10.9l.5-1.2c.5-1 1.6-1.6 2.7-1.2 1.1.3 1.7 1.4 1.5 2.6l-.2 1.3c-.7 3.8-1.8 7.4-3.2 11l-4.7 11.9c-.3.7-1.2 1.1-2 .9z"/><path id="XMLID_2000_" fill="#daedf7" d="M38.8 19.4c.3.1.6-.1.6-.4.1-.9.2-2.4.5-3.3.2-.8.7-1.5 1-2.1.2-.4-.1-.8-.6-1l-2.5-.8c-.6-.2-1.1.1-1.1.5 0 .6-.1 1.5-.3 2.3-.3.9-1 2.3-1.5 3-.2.3 0 .6.3.7l3.6 1.1z"/><path id="XMLID_1999_" fill="#e8f4fa" d="M36.4 18.3c.4-.7 1.2-2.1 1.5-3 .2-.8.3-1.7.3-2.3 0-.4.5-.6 1.1-.5l1.6.5c-.1-.2-.3-.4-.6-.5l-2.5-.8c-.6-.2-1.1.1-1.1.5 0 .6-.1 1.5-.3 2.3-.3.9-1 2.3-1.5 3-.2.3 0 .6.3.7l1.1.4c0-.1 0-.2.1-.3z"/><path id="XMLID_1995_" fill="none" stroke="#45413c" stroke-linecap="round" stroke-linejoin="round" stroke-miterlimit="10" d="M38.8 19.4c.3.1.6-.1.6-.4.1-.9.2-2.4.5-3.3.2-.8.7-1.5 1-2.1.2-.4-.1-.8-.6-1l-2.5-.8c-.6-.2-1.1.1-1.1.5 0 .6-.1 1.5-.3 2.3-.3.9-1 2.3-1.5 3-.2.3 0 .6.3.7l3.6 1.1z"/></g></g></svg>