<svg xmlns="http://www.w3.org/2000/svg" width="64" height="64" enable-background="new 0 0 64 64" viewBox="0 0 64 64"><path fill="#323A7C" d="M63.03,10.55H42.929c-0.543,0-0.97,0.437-0.97,0.97v40.96c0,0.533,0.427,0.97,0.97,0.97H63.03
		c0.533,0,0.97-0.437,0.97-0.97V11.52C64,10.987,63.563,10.55,63.03,10.55z M62.061,51.51H43.898V12.49h18.162V51.51z"/><path fill="#4FBEE6" d="M43.898,12.49V51.51h18.162V12.49H43.898z M52.975,43.462c-2.25,0-4.092-1.833-4.092-4.092
		c0-2.25,1.842-4.092,4.092-4.092c2.26,0,4.093,1.842,4.093,4.092C57.067,41.629,55.234,43.462,52.975,43.462z M60.189,29.867
		c0,0.533-0.437,0.97-0.97,0.97h-12.48c-0.543,0-0.97-0.437-0.97-0.97v-4.063c0-0.533,0.427-0.97,0.97-0.97h12.48
		c0.533,0,0.97,0.437,0.97,0.97V29.867z M60.189,21.285c0,0.534-0.437,0.97-0.97,0.97h-12.48c-0.543,0-0.97-0.436-0.97-0.97v-4.053
		c0-0.543,0.427-0.97,0.97-0.97h12.48c0.533,0,0.97,0.427,0.97,0.97V21.285z"/><path fill="#323A7C" d="M59.22,16.262h-12.48c-0.543,0-0.97,0.427-0.97,0.97v4.053c0,0.534,0.427,0.97,0.97,0.97h12.48
		c0.533,0,0.97-0.436,0.97-0.97v-4.053C60.189,16.688,59.753,16.262,59.22,16.262z M58.25,20.315H47.709v-2.114H58.25V20.315z"/><rect width="10.541" height="2.114" x="47.709" y="18.201" fill="#CBEAFB"/><path fill="#323A7C" d="M59.22,24.834h-12.48c-0.543,0-0.97,0.437-0.97,0.97v4.063c0,0.533,0.427,0.97,0.97,0.97h12.48
		c0.533,0,0.97-0.437,0.97-0.97v-4.063C60.189,25.271,59.753,24.834,59.22,24.834z M58.25,28.897H47.709v-2.124H58.25V28.897z"/><rect width="10.541" height="2.124" x="47.709" y="26.773" fill="#CBEAFB"/><path fill="#323A7C" d="M52.975,35.278c-2.25,0-4.092,1.842-4.092,4.092c0,2.259,1.842,4.092,4.092,4.092
		c2.26,0,4.093-1.833,4.093-4.092C57.067,37.12,55.234,35.278,52.975,35.278z M52.975,41.522c-1.183,0-2.152-0.97-2.152-2.153
		s0.97-2.153,2.152-2.153c1.184,0,2.153,0.97,2.153,2.153S54.158,41.522,52.975,41.522z"/><path fill="#FEDC7D" d="M55.128,39.37c0,1.183-0.97,2.153-2.153,2.153c-1.183,0-2.152-0.97-2.152-2.153s0.97-2.153,2.152-2.153
		C54.158,37.217,55.128,38.187,55.128,39.37z"/><path fill="#323A7C" d="M35.433,10.55H2.909C1.309,10.55,0,11.859,0,13.459v23.525c0,1.609,1.309,2.909,2.909,2.909h8.407v3.889
		c-2.55,0.32-4.538,2.482-4.538,5.12c0,0.533,0.427,0.97,0.97,0.97h22.846c0.543,0,0.97-0.437,0.97-0.97
		c0-2.638-1.978-4.8-4.538-5.12v-3.889h8.407c1.601,0,2.909-1.299,2.909-2.909V13.459C38.342,11.859,37.033,10.55,35.433,10.55z
		 M29.479,47.932H8.863c0.417-1.319,1.648-2.279,3.094-2.279h14.429C27.84,45.653,29.071,46.613,29.479,47.932z M13.256,43.714
		v-3.821h11.83v3.821H13.256z M36.402,36.984c0,0.533-0.437,0.97-0.97,0.97H2.909c-0.533,0-0.97-0.437-0.97-0.97V13.459
		c0-0.534,0.437-0.97,0.97-0.97h32.523c0.533,0,0.97,0.436,0.97,0.97V36.984z"/><path fill="#4FBEE6" d="M29.479 47.932H8.863c.417-1.319 1.648-2.279 3.094-2.279h14.429C27.84 45.653 29.071 46.613 29.479 47.932zM35.433 12.49H2.909c-.533 0-.97.436-.97.97v23.525c0 .533.437.97.97.97h32.523c.533 0 .97-.437.97-.97V13.459C36.402 12.926 35.966 12.49 35.433 12.49zM34.356 34.764c0 .533-.427.97-.97.97H4.955c-.543 0-.97-.437-.97-.97V15.68c0-.534.427-.97.97-.97h28.432c.543 0 .97.436.97.97V34.764z"/><path fill="#323A7C" d="M33.387,14.71H4.955c-0.543,0-0.97,0.436-0.97,0.97v19.083c0,0.533,0.427,0.97,0.97,0.97h28.432
		c0.543,0,0.97-0.437,0.97-0.97V15.68C34.356,15.146,33.93,14.71,33.387,14.71z M32.417,33.794H5.925V16.65h26.492V33.794z"/><rect width="26.492" height="17.144" x="5.925" y="16.65" fill="#EAEAEA"/></svg>