<svg xmlns="http://www.w3.org/2000/svg" data-name="Layer 1" viewBox="0 0 512 512"><path fill="#c8c5cc" d="M476.27,174.42q-.72-1.86-1.47-3.69a235.83,235.83,0,0,0-32.68-55.87l-.44-.55a235.23,235.23,0,0,0-183-89.54h-4.62l-2.56,0a235.1,235.1,0,0,0-75.34,14.08l-.45.17A235.9,235.9,0,0,0,21,260.53c0,2.59,0,5.18.13,7.75A234.44,234.44,0,0,0,61,392a.35.35,0,0,0,.05.08,236.22,236.22,0,0,0,130.17,95l.16.05a237.25,237.25,0,0,0,130.47.05l.37-.1q3.78-1.09,7.51-2.3,7.77-2.53,15.3-5.6c.9-.36,1.79-.73,2.69-1.11l3.52-1.51q4.89-2.16,9.66-4.52l2-1A235.64,235.64,0,0,0,492.37,268.28c.09-2.57.13-5.16.13-7.75A235,235,0,0,0,476.27,174.42Zm-227.48-73.5.43.31L249,179.82l-.64.46ZM157.71,383.53h-.27l40.48-49.23.35,1.08Z"/><polygon fill="#3c3b41" points="255.12 181.15 174.48 239.73 205.28 334.53 304.96 334.53 335.76 239.73 255.12 181.15"/><path fill="#3c3b41" d="M335.87 34.36L255.32 92.88 174.77 34.36a236.66 236.66 0 0 1 161.1 0zM101.43 205.19L20.59 263.92l-.23-.17c-.09-2.57-.13-5.16-.13-7.75A234.72 234.72 0 0 1 70.61 110.33zM230.55 312.81l-10 12.19-7.84 9.53-49.81 60.58-5.38 6.54L156.4 403a7.5 7.5 0 0 1-12-9 7.76 7.76 0 0 1 .5-.67l5.06-6.15 6.72-8.18H157l40.56-48.15-.35-1.08 4.7-5.72 6.6-8 10.59-12.88a7.5 7.5 0 1 1 11.47 9.67zM361.54 401.09a7.44 7.44 0 0 1-4.85 1.78 7.77 7.77 0 0 1-2.3-.35 7.49 7.49 0 0 1-3.42-2.29l-3-3.46-5.53-6.47.65-2.09-41-48.21h-2.66l-4.68-5.47L290.14 329a7.38 7.38 0 0 1-1.73-4 7.49 7.49 0 0 1 13.16-5.68l.34.39h0l5.7 6.67L359.4 387l3 3.51a7.37 7.37 0 0 1 1.65 3.48A7.48 7.48 0 0 1 361.54 401.09zM429.62 206.4l-2.88 1.27L419.32 211l-8.46 3.73-1.22-.89-67.11 29.43-.62 1.9-9.22 4.07-1 .45a7.46 7.46 0 0 1-3 .64 7.5 7.5 0 0 1-5.31-12.81 7.38 7.38 0 0 1 2.29-1.56l3-1.33 83.75-37 9.93-4.39 1.25-.55a7.5 7.5 0 1 1 6 13.73z"/><path fill="#3c3b41" d="M193.14 248a7.48 7.48 0 0 1-5.35 4.31 6.94 6.94 0 0 1-1.52.16 7.39 7.39 0 0 1-3-.64l-5.65-2.5L170 245.94l-.89-2.73-66.71-29.42-1.92 1.4-15.86-7-10.3-4.55a7.5 7.5 0 0 1 6.06-13.72L90 194.16l9.21 4.07 82.31 36.41 6.63 2.93 1.19.53A7.5 7.5 0 0 1 193.14 248zM263.16 75.87v2.55l0 8.8-.48 99.37V187a7.52 7.52 0 0 1-7.5 7.48 1.49 1.49 0 0 0 0-.21 7.59 7.59 0 0 1-4.92-1.77 7.09 7.09 0 0 1-2.56-5.53v-.35l0-10.84.64-.46.18-78.59-.43-.31 0-8.75.05-9.73V75.83a7.5 7.5 0 1 1 15 0zM451.33 387.69a236.22 236.22 0 0 1-130.17 95l-.85-.62 30.88-95h99.92zM491.43 255.15c0 2.59 0 5.18-.13 7.75l-.23.17-80.84-58.73 30.82-94.86A234.72 234.72 0 0 1 491.43 255.15zM191.18 482.22l-.85.62a236.22 236.22 0 0 1-130.17-95l.22-.68H160.3z"/><path d="M447.31,105.73l0,0a0,0,0,0,0,0,0A243.24,243.24,0,0,0,339.12,27.32a0,0,0,0,0,0,0,244.19,244.19,0,0,0-166.2,0l-.06,0A243.29,243.29,0,0,0,64.72,105.69a0,0,0,0,0,0,0l0,0A240.75,240.75,0,0,0,12.73,256c0,2.76,0,5.46.13,8A243.25,243.25,0,0,0,457.63,392.14a7.39,7.39,0,0,0,2.18-3.29A242.26,242.26,0,0,0,499.14,264c.08-2.55.13-5.25.13-8A240.75,240.75,0,0,0,447.31,105.73ZM433,111.86l-28.53,87.81-67.12,29.44L263.31,175.3l.18-78.59L337.7,42.79A228.45,228.45,0,0,1,433,111.86ZM327.62,240.57l-2.81,8.64-22.9,70.5h0L300.19,325H211.41l-2.92-9-20.7-63.72L184,240.57l4.13-3,62.07-45.1,5.62-4.08,4.9,3.56,62.66,45.52ZM256,27.73a228,228,0,0,1,64.28,9.18L263.15,78.42,256,83.61l-7.85-5.7-56.43-41A228,228,0,0,1,256,27.73ZM174.3,42.79l73.76,53.6.43.31-.18,78.59-.64.46L174.24,229.1l-66.71-29.42L79,111.86A228.39,228.39,0,0,1,174.3,42.79ZM68,126.51l22,67.65,2.65,8.17-8,5.84L27.83,249.39A225.43,225.43,0,0,1,68,126.51ZM28,267.78l72.39-52.59,1.92-1.4,66.71,29.42.89,2.73,27.24,83.83.35,1.08L157,379H63.68A227.21,227.21,0,0,1,28,267.78ZM74.17,394H155l2.48,7.65,22.65,69.7A228.93,228.93,0,0,1,74.17,394Zm241.45,82.41a229.83,229.83,0,0,1-117.94.33l-28.79-88.59L209.45,340h92.72l41,48.21-.65,2.09ZM333,470.93l21.35-68.41,2.66-8.52h80.78A228.89,228.89,0,0,1,333,470.93ZM448.32,379H355l-40.94-48.17,28.47-87.61h0l67.11-29.43h0l74.32,54A227.31,227.31,0,0,1,448.32,379ZM426.74,207.67l-7.35-5.34,3-9.11L444,126.51a225.43,225.43,0,0,1,40.15,122.88Z"/></svg>