<svg xmlns="http://www.w3.org/2000/svg" enable-background="new 0 0 512 512" viewBox="0 0 512 512"><path fill="#f2f0f0" d="M405.075,18.78v452.875c0,8.933-7.241,16.174-16.174,16.174H55.578c-8.933,0-16.174-7.241-16.174-16.174V18.78c0-8.933,7.241-16.174,16.174-16.174h333.323C397.834,2.606,405.075,9.847,405.075,18.78z"/><path d="M405.08,18.773v452.875c0,8.95-7.225,16.174-16.174,16.174h-32.834c8.95,0,16.174-7.225,16.174-16.174V18.773c0-8.95-7.225-16.174-16.174-16.174h32.834C397.856,2.599,405.08,9.823,405.08,18.773z" opacity=".08"/><path fill="#e5e3e5" d="M357.746,338.32L357.746,338.32c0-5.705-4.625-10.331-10.33-10.331H97.063c-5.705,0-10.33,4.625-10.33,10.33v0c0,5.705,4.625,10.33,10.33,10.33h250.353C353.121,348.651,357.746,344.025,357.746,338.32z"/><path d="M357.723,338.332c0,5.715-4.604,10.319-10.319,10.319h-20.162c5.662,0,10.319-4.604,10.319-10.319s-4.657-10.319-10.319-10.319h20.162C353.12,328.013,357.723,332.617,357.723,338.332z" opacity=".08"/><path fill="#e5e3e5" d="M357.746,292.866L357.746,292.866c0-5.705-4.625-10.331-10.33-10.331H97.063c-5.705,0-10.33,4.625-10.33,10.33v0c0,5.705,4.625,10.33,10.33,10.33h250.353C353.121,303.196,357.746,298.571,357.746,292.866z"/><path d="M357.723,292.878c0,5.715-4.604,10.319-10.319,10.319h-20.162c5.662,0,10.319-4.604,10.319-10.319s-4.657-10.319-10.319-10.319h20.162C353.12,282.559,357.723,287.162,357.723,292.878z" opacity=".08"/><path fill="#e5e3e5" d="M357.746,384.061L357.746,384.061c0-5.705-4.625-10.33-10.33-10.33H97.063c-5.705,0-10.33,4.625-10.33,10.33l0,0c0,5.705,4.625,10.33,10.33,10.33h250.353C353.121,394.391,357.746,389.766,357.746,384.061z"/><path d="M357.723,384.073c0,5.715-4.604,10.319-10.319,10.319h-20.162c5.662,0,10.319-4.604,10.319-10.319c0-5.715-4.657-10.319-10.319-10.319h20.162C353.12,373.754,357.723,378.358,357.723,384.073z" opacity=".08"/><path fill="#e5e3e5" d="M267.785,429.802L267.785,429.802c0-5.705-4.625-10.331-10.33-10.331H97.063c-5.705,0-10.33,4.625-10.33,10.33v0c0,5.705,4.625,10.33,10.33,10.33h160.392C263.16,440.132,267.785,435.507,267.785,429.802z"/><path d="M267.762,429.814c0,5.715-4.604,10.319-10.319,10.319h-20.162c5.662,0,10.319-4.604,10.319-10.319s-4.657-10.319-10.319-10.319h20.162C263.159,419.495,267.762,424.098,267.762,429.814z" opacity=".08"/><path fill="#f96464" d="M472.597,429.023c0,44.385-35.989,80.372-80.372,80.372c-44.082,0-80.331-35.638-80.331-80.372c0-44.369,35.963-80.372,80.331-80.372C436.634,348.651,472.597,384.654,472.597,429.023z"/><path d="M472.58,429.002c0,44.425-35.96,80.386-80.331,80.386c-4.044,0-8.033-0.323-11.915-0.863c38.71-5.769,68.47-39.141,68.47-79.523c0-40.327-29.707-73.7-68.47-79.469c3.882-0.539,7.872-0.862,11.915-0.862C436.62,348.671,472.58,384.631,472.58,429.002z" opacity=".08"/><path fill="#fff" d="M368.712,460.186l-18.27-22.287c-3.775-4.607-3.101-11.401,1.503-15.176c4.607-3.778,11.396-3.104,15.176,1.503l10.722,13.081l40.24-40.235c4.207-4.212,11.041-4.212,15.247,0c4.212,4.209,4.212,11.038,0,15.247l-48.657,48.654C380.161,465.488,372.753,465.109,368.712,460.186z"/><path fill="#13bd79" d="M325.92,154.022c0,57.278-46.444,103.72-103.72,103.72c-56.887,0-103.667-45.991-103.667-103.72c0-57.258,46.409-103.72,103.667-103.72C279.51,50.303,325.92,96.765,325.92,154.022z"/><path d="M325.946,154.053c0,26.671-10.107,51.013-26.618,69.376c-16.087,17.833-38.842,30.534-64.878,33.603c-0.953,0.106-1.905,0.212-2.858,0.265c-1.693,0.212-3.439,0.318-5.239,0.37c-1.376,0.053-2.752,0.053-4.127,0.053c-1.429,0-2.858,0-4.286-0.053c-1.323-0.053-2.646-0.159-3.916-0.265c0.37,0,0.688-0.053,1.058-0.106c0.952-0.053,1.905-0.159,2.858-0.265c25.983-3.069,48.738-15.77,64.825-33.603c16.563-18.362,26.618-42.705,26.618-69.376c0-54.506-42.017-99.169-95.464-103.35c2.752-0.265,5.503-0.37,8.308-0.37C279.484,50.333,325.946,96.743,325.946,154.053z" opacity=".08"/><path fill="#fff" d="M258.581 127.965l-4.817 21.949c-3.224 14.814-16.371 25.389-31.547 25.389-14.768 0-28.2-10.144-31.547-25.389l-4.817-21.949c-4.383-20.138 10.938-39.189 31.583-39.189h9.598C247.643 88.777 263 107.828 258.581 127.965zM307.028 213.714c-18.741 26.658-49.898 44.028-84.828 44.028-34.978 0-66.366-17.564-84.775-43.975l3.175-9.102c5.186-14.87 19.262-24.872 35.032-24.872h15.77c3.492 0 6.826 1.746 8.784 4.71l13.23 19.738c4.181 6.245 13.388 6.245 17.569 0l13.283-19.738c1.958-2.963 5.239-4.71 8.785-4.71h15.823c15.77 0 29.793 9.949 34.979 24.872L307.028 213.714z"/><path d="M97.064 351.254h250.351c7.132 0 12.934-5.802 12.934-12.934 0-7.133-5.802-12.935-12.934-12.935H97.064c-7.132 0-12.934 5.802-12.934 12.935C84.13 345.452 89.932 351.254 97.064 351.254zM97.064 330.593h250.351c4.261 0 7.727 3.467 7.727 7.728 0 4.26-3.465 7.727-7.727 7.727H97.064c-4.261 0-7.727-3.467-7.727-7.727C89.337 334.059 92.803 330.593 97.064 330.593zM97.064 305.8h250.351c7.132 0 12.934-5.802 12.934-12.934 0-7.133-5.802-12.935-12.934-12.935H97.064c-7.132 0-12.934 5.802-12.934 12.935C84.13 299.998 89.932 305.8 97.064 305.8zM97.064 285.138h250.351c4.261 0 7.727 3.467 7.727 7.728 0 4.26-3.465 7.727-7.727 7.727H97.064c-4.261 0-7.727-3.467-7.727-7.727C89.337 288.605 92.803 285.138 97.064 285.138zM257.454 416.868H97.064c-7.132 0-12.934 5.802-12.934 12.934s5.802 12.934 12.934 12.934h160.39c7.132 0 12.934-5.802 12.934-12.934S264.586 416.868 257.454 416.868zM257.454 437.529H97.064c-4.261 0-7.727-3.467-7.727-7.727 0-4.26 3.465-7.727 7.727-7.727h160.39c4.261 0 7.727 3.467 7.727 7.727C265.181 434.062 261.716 437.529 257.454 437.529z"/><path d="M407.68,347.513V18.781c0-10.354-8.423-18.779-18.779-18.779H55.578c-10.356,0-18.779,8.425-18.779,18.779v452.874c0,10.354,8.423,18.778,18.779,18.778h280.93c14.734,13.393,34.289,21.565,55.715,21.565c45.755,0,82.977-37.222,82.977-82.975C475.201,388.552,446.07,354.777,407.68,347.513z M42.006,471.655V18.781c0-7.484,6.089-13.572,13.572-13.572h333.323c7.483,0,13.572,6.088,13.572,13.572v327.922c-3.361-0.416-6.777-0.656-10.249-0.656c-23.236,0-44.257,9.623-59.329,25.079H97.064c-7.132,0-12.934,5.802-12.934,12.935c0,7.132,5.802,12.934,12.934,12.934h218.66c-4.14,9.86-6.433,20.68-6.433,32.028c0,21.666,8.351,41.41,21.991,56.203H55.578C48.096,485.226,42.006,479.138,42.006,471.655z M318.144,391.788H97.064c-4.261,0-7.727-3.467-7.727-7.727c0-4.261,3.465-7.728,7.727-7.728h231.141C324.303,381.071,320.932,386.258,318.144,391.788z M392.224,506.791c-42.859,0-77.726-34.887-77.726-77.768s34.868-77.768,77.726-77.768c42.882,0,77.77,34.887,77.77,77.768S435.106,506.791,392.224,506.791z"/><path d="M416.243 395.232l-38.209 38.202-8.899-10.859c-4.686-5.705-13.137-6.546-18.84-1.865-5.708 4.679-6.544 13.131-1.866 18.84l18.268 22.286c0 .001 0 .001.003.003 4.981 6.068 14.177 6.614 19.816.975l48.656-48.652c5.23-5.225 5.238-13.699.003-18.929C429.757 389.804 421.294 390.173 416.243 395.232zM431.49 410.479l-48.656 48.653c-3.373 3.378-8.995 3.193-12.11-.598v.001l-18.268-22.286c-2.86-3.49-2.349-8.653 1.139-11.512 3.491-2.863 8.652-2.344 11.512 1.139l10.722 13.081c.949 1.162 2.742 1.308 3.854.191l40.242-40.236c3.191-3.194 8.37-3.199 11.563.003C434.69 402.109 434.689 407.283 431.49 410.479zM188.128 150.471c8.042 36.655 60.298 36.232 68.179 0l4.815-21.948c4.779-21.763-11.821-42.35-34.09-42.35h-9.598c-22.306 0-38.862 20.585-34.125 42.35L188.128 150.471zM217.436 91.38h9.598c18.952 0 33.067 17.52 29.005 36.027l-4.818 21.953c-6.692 30.763-51.148 31.231-58.007-.005l-4.815-21.943C184.361 108.864 198.487 91.38 217.436 91.38z"/><path d="M222.2,260.346c58.688,0,106.322-47.776,106.322-106.324c0-58.627-47.695-106.323-106.322-106.323c-58.597,0-106.271,47.696-106.271,106.323C115.929,211.873,162.679,260.346,222.2,260.346z M222.2,255.139c-32.303,0-62.729-15.531-81.838-41.89l2.695-7.727c4.823-13.832,17.914-23.125,32.574-23.125H191.4c2.675,0,5.149,1.323,6.621,3.554l13.231,19.737c5.222,7.798,16.694,7.766,21.893,0.005l13.292-19.756c1.464-2.217,3.938-3.54,6.613-3.54h15.822c14.647,0,27.716,9.292,32.524,23.129l2.701,7.698C284.557,240.181,253.811,255.139,222.2,255.139z M222.2,52.906c55.754,0,101.115,45.361,101.115,101.116c0,19.778-5.73,38.233-15.584,53.835l-1.42-4.046c-5.53-15.922-20.576-26.62-37.438-26.62h-15.822c-4.429,0-8.525,2.197-10.945,5.859l-13.285,19.744c-3.134,4.685-10.072,4.739-13.241-0.001l-13.223-19.725c-2.431-3.68-6.527-5.877-10.956-5.877h-15.769c-16.872,0-31.939,10.696-37.492,26.616l-1.418,4.065c-9.855-15.605-15.586-34.065-15.586-53.849C121.136,98.267,166.474,52.906,222.2,52.906z"/></svg>