<svg xmlns="http://www.w3.org/2000/svg" enable-background="new 0 0 64 64" viewBox="0 0 64 64"><rect width="40" height="54" x="1.5" y="1.5" fill="#fff"/><path fill="#efefef" d="M41.5,48.07v7.43h-40v-54H12c0,6.36,1.15,12.46,3.26,18.08c1.04,2.76,2.3,5.41,3.77,7.92
				C24.26,36.42,32.1,43.63,41.5,48.07z"/><path fill="#fcda35" d="M62.5,8.5v4.06c0,1.18-0.69,2.25-1.77,2.74l-2.23,1l-14.77,6.65c-0.71,0.31-1.51,0.34-2.23,0.09V8.5H62.5z"/><path fill="#fcda35" d="M62.5,12.56V62.5h-40v-7h4v3h32V16.3l2.23-1C61.81,14.81,62.5,13.74,62.5,12.56z"/><path fill="#06afff" d="M58.5,16.3v42.2h-32v-3h15V23.04c0.72,0.25,1.52,0.22,2.23-0.09L58.5,16.3z"/><path fill="#faca00" d="M62.5,48.53V62.5h-40v-7h4v3h32V47.82C59.81,48.11,61.15,48.34,62.5,48.53z"/><path fill="#0688ff" d="M58.5,47.82V58.5h-32v-3h15V40.73C46.61,44.05,52.35,46.49,58.5,47.82z"/><circle cx="13.5" cy="19.5" r="4" fill="#ff56cb"/><path fill="#d949ac" d="M20.5,36.5v-5c0-3.314-2.687-6-6-6H12.5c-3.314,0-6,2.687-6,6v5H20.5z"/><path fill="#ff56cb" d="M34.5,10.5h-26c-1.105,0-2-0.895-2-2v0c0-1.105,0.895-2,2-2h26c1.105,0,2,0.895,2,2v0
				C36.5,9.605,35.605,10.5,34.5,10.5z"/><rect width="11" height="2" x="6.5" y="44.5" fill="#faca00"/><rect width="11" height="2" x="25.5" y="44.5" fill="#fcda35"/><path fill="#d949ac" d="M16.37 22.29c-.73.75-1.75 1.21-2.87 1.21-2.21 0-4-1.79-4-4 0-2.21 1.79-4 4-4 .14 0 .29.01.43.02.38 1.38.83 2.73 1.33 4.06C15.6 20.5 15.97 21.4 16.37 22.29zM12.79 10.5H8.5c-1.1 0-2-.9-2-2 0-.55.22-1.05.59-1.41C7.45 6.72 7.95 6.5 8.5 6.5h3.74C12.37 7.85 12.55 9.19 12.79 10.5z"/><path fill="#faca00" d="M36.5,45.36v1.14h-11v-2h9.66C35.6,44.8,36.05,45.08,36.5,45.36z"/><path fill="#2828b8" d="M41.5,56h-40C1.224,56,1,55.776,1,55.5v-54C1,1.224,1.224,1,1.5,1h40C41.776,1,42,1.224,42,1.5v54
					C42,55.776,41.776,56,41.5,56z M2,55h39V2H2V55z"/><path fill="#2828b8" d="M62.5,63h-40c-0.276,0-0.5-0.224-0.5-0.5v-7c0-0.276,0.224-0.5,0.5-0.5s0.5,0.224,0.5,0.5V62h39V11.5
					c0-0.276,0.224-0.5,0.5-0.5s0.5,0.224,0.5,0.5v51C63,62.776,62.776,63,62.5,63z"/><path fill="#2828b8" d="M42.501,23.711c-0.393,0-0.787-0.067-1.168-0.202c-0.26-0.092-0.396-0.377-0.305-0.638
					c0.094-0.26,0.378-0.396,0.639-0.304c0.609,0.215,1.27,0.188,1.859-0.078l16.999-7.649C61.421,14.437,62,13.542,62,12.56V9H41.5
					C41.224,9,41,8.776,41,8.5S41.224,8,41.5,8h21C62.776,8,63,8.224,63,8.5v4.06c0,1.375-0.811,2.628-2.064,3.192l-16.999,7.649
					C43.479,23.608,42.991,23.711,42.501,23.711z"/><path fill="#2828b8" d="M58.5 30c-.276 0-.5-.224-.5-.5V16.3c0-.276.224-.5.5-.5s.5.224.5.5v13.2C59 29.776 58.776 30 58.5 30zM58.5 59h-32c-.276 0-.5-.224-.5-.5v-3c0-.276.224-.5.5-.5s.5.224.5.5V58h31V42.5c0-.276.224-.5.5-.5s.5.224.5.5v16C59 58.776 58.776 59 58.5 59zM58.5 38c-.276 0-.5-.224-.5-.5v-5c0-.276.224-.5.5-.5s.5.224.5.5v5C59 37.776 58.776 38 58.5 38zM13.5 24C11.019 24 9 21.981 9 19.5s2.019-4.5 4.5-4.5 4.5 2.019 4.5 4.5S15.981 24 13.5 24zM13.5 16c-1.93 0-3.5 1.57-3.5 3.5s1.57 3.5 3.5 3.5 3.5-1.57 3.5-3.5S15.43 16 13.5 16zM20.5 37h-14C6.224 37 6 36.776 6 36.5v-5c0-3.584 2.916-6.5 6.5-6.5h2c3.584 0 6.5 2.916 6.5 6.5v5C21 36.776 20.776 37 20.5 37zM7 36h13v-4.5c0-3.033-2.468-5.5-5.5-5.5h-2C9.468 26 7 28.467 7 31.5V36zM29.5 31h-4c-.276 0-.5-.224-.5-.5s.224-.5.5-.5h4c.276 0 .5.224.5.5S29.776 31 29.5 31zM36.5 37h-11c-.276 0-.5-.224-.5-.5s.224-.5.5-.5h11c.276 0 .5.224.5.5S36.776 37 36.5 37zM36.5 26h-11c-.276 0-.5-.224-.5-.5s.224-.5.5-.5h11c.276 0 .5.224.5.5S36.776 26 36.5 26zM36.5 21h-11c-.276 0-.5-.224-.5-.5s.224-.5.5-.5h11c.276 0 .5.224.5.5S36.776 21 36.5 21zM36.5 16h-11c-.276 0-.5-.224-.5-.5s.224-.5.5-.5h11c.276 0 .5.224.5.5S36.776 16 36.5 16zM34.5 11h-26C7.121 11 6 9.878 6 8.5S7.121 6 8.5 6h26C35.879 6 37 7.122 37 8.5S35.879 11 34.5 11zM8.5 7C7.673 7 7 7.673 7 8.5S7.673 10 8.5 10h26c.827 0 1.5-.673 1.5-1.5S35.327 7 34.5 7H8.5zM17.5 47h-11C6.224 47 6 46.776 6 46.5v-2C6 44.224 6.224 44 6.5 44h11c.276 0 .5.224.5.5v2C18 46.776 17.776 47 17.5 47zM7 46h10v-1H7V46zM36.5 47h-11c-.276 0-.5-.224-.5-.5v-2c0-.276.224-.5.5-.5h11c.276 0 .5.224.5.5v2C37 46.776 36.776 47 36.5 47zM26 46h10v-1H26V46z"/><path fill="#2828b8" d="M36.5,51h-30C6.224,51,6,50.776,6,50.5S6.224,50,6.5,50h30c0.276,0,0.5,0.224,0.5,0.5S36.776,51,36.5,51z"/></svg>