<svg xmlns="http://www.w3.org/2000/svg" viewBox="0 0 1010 973.668"><path fill="#FF9554" d="M267.044 66.205L70.563 121.721l-5.465-1.69v403.63s13.265 51.33 92.614 39.19l237.504-114.735V44.486L267.044 66.204z"/><path fill="#4D4D4D" d="M134.694 575.01c-66.204 0-79.057-46.78-79.57-48.773a10.156 10.156 0 0 1-.333-2.576V120.03c0-3.282 1.56-6.362 4.187-8.295 2.638-1.952 6.02-2.495 9.17-1.55l2.546.786 193.552-54.69 129.25-21.962c3.029-.504 6.058.342 8.373 2.294a10.294 10.294 0 0 1 3.653 7.871v403.63c0 3.946-2.264 7.57-5.827 9.28L162.191 572.131a10.46 10.46 0 0 1-2.919.906c-8.575 1.309-16.838 1.973-24.578 1.973zm-59.29-52.92c2.023 5.636 13.95 32.307 59.29 32.307 6.25 0 12.954-.503 19.949-1.51L384.91 441.655V56.684L268.765 76.37 75.404 131.06v391.03z"/><path fill="#FFF" d="M395.216 44.485L157.712 159.201c-89.303 15.902-92.614-39.17-92.614-39.17L299.089 10.325s17.1 36.273 96.127 34.16z"/><path fill="#4D4D4D" d="M127.85 172.386c-69.143.02-73.008-51.229-73.038-51.732a10.324 10.324 0 0 1 5.908-9.964L294.71.986a10.266 10.266 0 0 1 13.698 4.951c.071.101 15.48 28.323 80.245 28.323l6.29-.081c5.053.04 9.14 3.14 10.287 7.87a10.3 10.3 0 0 1-5.536 11.716L162.191 168.48c-.845.403-1.741.705-2.667.866-11.333 2.012-21.991 3.039-31.673 3.039zm-50.936-46.519c3.482 9.562 14.724 25.906 50.937 25.906 8.091 0 17.049-.825 26.671-2.475l200.879-97.023c-34.099-5.756-51.561-19.807-59.633-29.006L76.914 125.867z"/><path fill="#FFF" d="M157.712 159.201v397.17"/><path fill="#4D4D4D" d="M157.712 566.676a10.3 10.3 0 0 1-10.306-10.306V159.201a10.3 10.3 0 0 1 10.306-10.306 10.3 10.3 0 0 1 10.307 10.306V556.37a10.3 10.3 0 0 1-10.307 10.306z"/><path fill="#5FD4AF" d="M401.094 126.11l-196.48 55.495-5.445-1.71v403.67s13.265 51.33 92.604 39.171L529.257 508.02V104.39l-128.163 21.72z"/><path fill="#4D4D4D" d="M268.725 634.914c-66.175 0-79.018-46.78-79.53-48.773a10.153 10.153 0 0 1-.333-2.576v-403.67c0-3.282 1.56-6.362 4.207-8.314a10.393 10.393 0 0 1 9.19-1.51l2.515.785 193.522-54.67 129.24-21.961c3.028-.524 6.059.322 8.374 2.294a10.293 10.293 0 0 1 3.652 7.87V508.02c0 3.946-2.263 7.569-5.827 9.28L296.252 632.016a10.49 10.49 0 0 1-2.92.906c-8.584 1.308-16.857 1.992-24.607 1.992zm-59.25-52.92c2.012 5.637 13.94 32.308 59.25 32.308 6.26 0 12.973-.523 19.978-1.53l230.248-111.213V116.588l-116.136 19.686-193.34 54.671v391.05z"/><path fill="#FFF" d="M529.257 104.39L291.773 219.105c-89.303 15.903-92.605-39.21-92.605-39.21L433.14 70.23s17.1 36.314 96.117 34.16z"/><path fill="#4D4D4D" d="M261.931 232.29c-69.154 0-73.018-51.269-73.049-51.771a10.325 10.325 0 0 1 5.908-9.964L428.762 60.89a10.314 10.314 0 0 1 13.698 4.952c.07.101 15.459 28.343 80.124 28.343l6.391-.101c5.223.26 9.159 3.16 10.297 7.87a10.3 10.3 0 0 1-5.537 11.715L296.252 228.386c-.846.402-1.742.704-2.667.865-11.333 2.013-21.982 3.04-31.654 3.04zm-50.947-46.559c3.472 9.582 14.715 25.947 50.947 25.947 8.082 0 17.04-.825 26.65-2.476l200.84-97.022c-34.079-5.757-51.53-19.808-59.613-29.006L210.984 185.73z"/><path fill="#FFF" d="M291.772 219.105v397.21"/><path fill="#4D4D4D" d="M291.772 626.621a10.3 10.3 0 0 1-10.306-10.307V219.105a10.3 10.3 0 0 1 10.306-10.305 10.3 10.3 0 0 1 10.307 10.305v397.21a10.3 10.3 0 0 1-10.307 10.306z"/><g><path fill="#A6A6A6" d="M549.627 445.78L456.51 670.1l215.846 80.457L892.467 670.1l-97.364-224.32z"/><path fill="#4D4D4D" d="M672.356 760.862c-1.22 0-2.436-.221-3.604-.643L452.907 679.76a10.331 10.331 0 0 1-5.848-5.554 10.307 10.307 0 0 1-.07-8.053l93.117-224.319a10.321 10.321 0 0 1 9.521-6.36h245.476c4.106 0 7.82 2.435 9.45 6.2l97.365 224.319a10.295 10.295 0 0 1 .02 8.172c-1.117 2.617-3.27 4.63-5.927 5.616l-220.113 80.456a10.23 10.23 0 0 1-3.543.624zm-202.229-96.68l202.258 75.384 206.274-75.384-90.32-208.095H556.513l-86.385 208.095z"/><path fill="#4D4D4D" d="M672.356 760.862a10.3 10.3 0 0 1-10.307-10.305V454.275a10.3 10.3 0 0 1 10.307-10.306 10.3 10.3 0 0 1 10.305 10.306v296.282a10.3 10.3 0 0 1-10.305 10.305z"/><path fill="#A6A6A6" d="M368.425 421.807l301.837-114.193 301.816 114.193-301.816 114.152z"/><path fill="#4D4D4D" d="M670.262 546.265a10.29 10.29 0 0 1-3.644-.664L364.781 431.45c-4.006-1.51-6.662-5.354-6.662-9.642s2.647-8.132 6.662-9.642l301.837-114.193a10.323 10.323 0 0 1 7.287 0l301.818 114.193c4.006 1.51 6.662 5.354 6.662 9.642s-2.656 8.132-6.662 9.642L673.905 545.6a10.29 10.29 0 0 1-3.643.664zm-272.71-124.458l272.71 103.142 272.69-103.142-272.69-103.182-272.71 103.182z"/><path fill="#4D4D4D" d="M965.839 560.496a10.3 10.3 0 0 1-10.306-10.306V432.113H669.537a10.3 10.3 0 0 1-10.307-10.306 10.3 10.3 0 0 1 10.307-10.306H965.84a10.3 10.3 0 0 1 10.305 10.306V550.19a10.3 10.3 0 0 1-10.305 10.306z"/><path fill="#FFF" d="M965.839 547.351l-28.222 62.1 33.878 59.24 28.2-62.058z"/><path fill="#4D4D4D" d="M971.495 678.997a10.313 10.313 0 0 1-8.948-5.193l-33.877-59.24a10.322 10.322 0 0 1-.433-9.38l28.222-62.1a10.262 10.262 0 0 1 8.906-6.017c3.955-.504 7.498 1.811 9.421 5.173l33.867 59.28a10.353 10.353 0 0 1 .423 9.38l-28.201 62.059a10.236 10.236 0 0 1-8.896 6.018c-.163.02-.323.02-.484.02zm-22.313-70.09l21.266 37.179 17.694-38.91-21.257-37.22-17.703 38.951z"/></g><g><path fill="#CCC" d="M10.306 750.094v51.731s92-1.912 164.124 73.009c0 0 107.801-11.111 204.24 88.528l203.023-93.842v-59.461l-504.518-70.11-66.869 10.145z"/><path fill="#4D4D4D" d="M378.67 973.668a10.3 10.3 0 0 1-7.407-3.14c-74.91-77.397-155.589-85.75-186.8-85.75-5.535 0-8.725.282-8.997.302-3.2.383-6.27-.826-8.464-3.1-65.36-67.896-146.963-69.85-156.062-69.85-5.686 0-10.94-4.609-10.94-10.305v-51.731c0-5.093 3.724-9.421 8.756-10.186l66.87-10.144a11.28 11.28 0 0 1 2.969-.022l504.517 70.11A10.296 10.296 0 0 1 592 810.06v59.46c0 4.027-2.336 7.67-5.979 9.36l-203.023 93.844a10.279 10.279 0 0 1-4.328.945zM184.464 864.166c33.113 0 117.504 8.574 196.45 86.797l190.473-88.026v-43.902l-494.151-68.68-56.624 8.595v32.991c27.436 1.973 98.432 12.883 157.884 72.325 1.63-.061 3.633-.1 5.968-.1z"/><path fill="#FFF" d="M10.306 750.094s106.997-1.45 164.124 68.197c0 0 101.169-15.076 203.778 79.53l203.204-89.313s-72.667-85.489-196.663-84.059c0 0-63.638-64.775-165.743-67.654l-208.7 93.299z"/><path fill="#4D4D4D" d="M378.207 908.127c-2.536 0-5.042-.945-6.984-2.736-76.049-70.11-151.543-77.68-180.469-77.68-9.118 0-14.443.725-14.835.785-3.492.463-7.176-.885-9.46-3.663-52.246-63.71-151.453-64.434-155.65-64.434-4.86 0-9.32-3.401-10.336-8.152-1.006-4.77 1.188-9.581 5.626-11.554l208.7-93.299c1.419-.644 3.01-.906 4.498-.906 93.28 2.637 155.005 54.188 169.579 67.635 124.79.482 197.356 84.14 200.386 87.702a10.342 10.342 0 0 1 2.194 8.998 10.35 10.35 0 0 1-5.897 7.126l-203.205 89.313a10.314 10.314 0 0 1-4.147.865zM190.754 807.1c30.707 0 109.714 7.77 189.416 78.603l183.407-80.617c-23.118-21.598-85.297-70.352-175.758-70.352l-2.949.02c-3.281-.784-5.495-1.067-7.458-3.078-.614-.605-61.233-60.871-156.373-64.494L50.565 743.39c37.058 5.978 91.034 21.9 128.223 64.11 2.959-.2 6.994-.401 11.966-.401z"/><path fill="#4D4D4D" d="M174.43 880.792a10.3 10.3 0 0 1-10.307-10.306v-52.195c0-4.066 2.396-7.75 6.11-9.42l210.32-93.843c5.203-2.294 11.282.02 13.607 5.214 2.325 5.213-.01 11.292-5.214 13.627l-204.21 91.106v45.511a10.3 10.3 0 0 1-10.306 10.306z"/><path fill="#FFF" d="M378.207 897.821v59.704"/><path fill="#4D4D4D" d="M378.207 967.831a10.3 10.3 0 0 1-10.306-10.306v-59.704a10.3 10.3 0 0 1 10.306-10.306 10.3 10.3 0 0 1 10.307 10.306v59.704a10.3 10.3 0 0 1-10.307 10.306z"/></g><g><path fill="#FFF" d="M596.428 714.928s-15.399-59.461-25.565-59.461c-10.125 0-24.719 59.42-24.719 59.42l24.659 29.027 25.625-28.986z"/><path fill="#4D4D4D" d="M570.803 754.22h-.1a10.215 10.215 0 0 1-7.75-3.644l-24.658-29.025a10.263 10.263 0 0 1-2.154-9.12c16.515-67.27 28.815-67.27 34.722-67.27 5.889 0 18.147 0 35.54 67.19.865 3.301.019 6.844-2.256 9.4l-25.624 28.987a10.307 10.307 0 0 1-7.72 3.482zm-13.365-41.95l13.517 15.903 14.09-15.923c-4.52-16.486-9.943-32.106-14.08-40.903-4.027 8.898-9.29 24.68-13.528 40.923z"/><path fill="#FF9554" d="M546.144 714.888l50.284.04-.161 216.529h-50.283z"/><path fill="#4D4D4D" d="M596.267 941.764h-50.283a10.298 10.298 0 0 1-7.287-3.02 10.338 10.338 0 0 1-3.02-7.287l.162-216.57c0-2.737 1.087-5.354 3.02-7.286s4.559-3.02 7.286-3.02h.01l50.283.04c5.687 0 10.296 4.63 10.296 10.307l-.162 216.529c0 5.697-4.619 10.307-10.305 10.307zM556.3 921.15h29.67l.14-195.917-29.67-.04-.14 195.957z"/></g></svg>