<svg xmlns="http://www.w3.org/2000/svg" width="32" height="32" viewBox="0 0 32 32"><g transform="translate(0 -1020.362)"><path fill="#373748" style="line-height:normal;text-indent:0;text-align:start;text-decoration-line:none;text-decoration-style:solid;text-decoration-color:#000;text-transform:none;block-progression:tb;isolation:auto;mix-blend-mode:normal" d="m 7.8300781,1031.6152 c -3.6458488,0 -6.611321,2.9654 -6.6113281,6.6114 a 0.50005,0.50005 0 0 0 0,0 c 0.00327,1.054 0.320726,2.0707 0.8046875,3.0039 l -1.24023438,5.9063 c -0.5808839,2.2122 0.80766518,4.6533 3.14257808,5.1152 2.1813479,0.5062 4.3489054,-0.8428 4.9394532,-3.0918 l 1.2480466,-3.9199 c 0.472657,0.248 0.937897,0.5369 1.478516,0.5371 0.846339,-10e-4 1.630271,-0.365 2.242187,-0.9395 l 4.357422,0 c 0.611347,0.5738 1.392811,0.9379 2.238282,0.9395 a 0.50005,0.50005 0 0 0 0.002,0 c 0.756283,-9e-4 1.444394,-0.3182 2.027343,-0.7832 l 1.326172,4.166 c 0.59062,2.2493 2.759985,3.598 4.941406,3.0918 2.334973,-0.4619 3.721434,-2.9033 3.140626,-5.1152 l -1.25586,-5.9825 c 0.455923,-0.9147 0.757696,-1.905 0.757813,-2.9296 -7e-6,-3.646 -2.967437,-6.6114 -6.613282,-6.6114 -1.180457,0 -2.329052,0.3408 -3.34375,0.9395 l -10.24414,0 c -1.01293,-0.5976 -2.1575547,-0.9371 -3.3359378,-0.9395 a 0.50005,0.50005 0 0 0 -0.00195,0 z m 0,1 c 1.0546808,0 2.0860991,0.3012 2.9785159,0.8633 a 0.50005,0.50005 0 0 0 0.267578,0.076 l 10.429687,0 a 0.50005,0.50005 0 0 0 0.265625,-0.076 c 0.893873,-0.563 1.927974,-0.8621 2.984375,-0.8633 3.105388,0 5.613276,2.5058 5.613282,5.6114 -1.08e-4,0.9491 -0.24222,1.8841 -0.701172,2.7148 a 0.50005,0.50005 0 0 0 -0.05078,0.3438 l 1.277343,6.082 a 0.50005,0.50005 0 0 0 0.0059,0.025 c 0.434507,1.6548 -0.62918,3.5416 -2.375,3.8828 a 0.50005,0.50005 0 0 0 -0.01758,0 c -1.669756,0.3918 -3.287361,-0.5944 -3.753906,-2.3711 a 0.50005,0.50005 0 0 0 -0.0078,-0.023 l -1.494141,-4.6973 a 0.50005,0.50005 0 0 0 -0.476562,-0.3477 l -0.246094,0 a 0.50005,0.50005 0 0 0 -0.371094,0.1661 c -0.439413,0.4913 -1.067497,0.7721 -1.726562,0.7734 -0.659219,-0 -1.285136,-0.2821 -1.72461,-0.7734 a 0.50005,0.50005 0 0 0 -0.373047,-0.1661 l -4.642578,0 a 0.50005,0.50005 0 0 0 -0.373047,0.1661 c -0.439826,0.4917 -1.066815,0.7726 -1.726562,0.7734 -0.543609,-2e-4 -1.069086,-0.1906 -1.486328,-0.5391 a 0.50005,0.50005 0 0 0 -0.7968752,0.2325 l -1.4042969,4.4121 a 0.50005,0.50005 0 0 0 -0.00586,0.023 c -0.4666169,1.777 -2.0840816,2.7629 -3.7539063,2.3711 a 0.50005,0.50005 0 0 0 -0.017578,-0 C 2.3810879,1050.9342 1.3155687,1049.0471 1.75,1047.3926 a 0.50005,0.50005 0 0 0 0.00586,-0.025 l 1.2636718,-6.0117 a 0.50005,0.50005 0 0 0 -0.056641,-0.3516 c -0.4854623,-0.8454 -0.7411133,-1.8025 -0.7441406,-2.7773 6e-6,-3.1056 2.5059372,-5.6114 5.6113281,-5.6114 z" color="#000" font-family="sans-serif" font-weight="400" overflow="visible"/><path fill="#373748" fill-rule="evenodd" style="line-height:normal;text-indent:0;text-align:start;text-decoration-line:none;text-decoration-style:solid;text-decoration-color:#000;text-transform:none;block-progression:tb;isolation:auto;mix-blend-mode:normal" d="m 7.8222656,1034.4355 a 0.50004997,0.50004997 0 0 0 -0.4921875,0.5079 l 0,4.7304 a 0.50004997,0.50004997 0 1 0 1,0 l 0,-4.7304 a 0.50004997,0.50004997 0 0 0 -0.5078125,-0.5079 z" color="#000" font-family="sans-serif" font-weight="400" overflow="visible"/><path fill="#373748" fill-rule="evenodd" style="line-height:normal;text-indent:0;text-align:start;text-decoration-line:none;text-decoration-style:solid;text-decoration-color:#000;text-transform:none;block-progression:tb;isolation:auto;mix-blend-mode:normal" d="m 5.4863281,1036.8086 a 0.50004997,0.50004997 0 1 0 0,1 l 4.6874999,0 a 0.50004997,0.50004997 0 1 0 0,-1 l -4.6874999,0 z" color="#000" font-family="sans-serif" font-weight="400" overflow="visible"/><path fill="#fcd062" style="isolation:auto;mix-blend-mode:normal" d="m 25.699392,1034.9462 a 0.9432348,0.95045376 0 0 1 -0.943235,0.9504 0.9432348,0.95045376 0 0 1 -0.943235,-0.9504 0.9432348,0.95045376 0 0 1 0.943235,-0.9505 0.9432348,0.95045376 0 0 1 0.943235,0.9505 z" color="#000" overflow="visible"/><path fill="#78c8f0" style="isolation:auto;mix-blend-mode:normal" d="m 28.047292,1037.3152 a 0.9432348,0.95045376 0 0 1 -0.943235,0.9504 0.9432348,0.95045376 0 0 1 -0.943234,-0.9504 0.9432348,0.95045376 0 0 1 0.943234,-0.9505 0.9432348,0.95045376 0 0 1 0.943235,0.9505 z" color="#000" overflow="visible"/><path fill="#60c5b8" style="isolation:auto;mix-blend-mode:normal" d="m 25.699392,1039.6838 a 0.9432348,0.95045376 0 0 1 -0.943235,0.9505 0.9432348,0.95045376 0 0 1 -0.943235,-0.9505 0.9432348,0.95045376 0 0 1 0.943235,-0.9504 0.9432348,0.95045376 0 0 1 0.943235,0.9504 z" color="#000" overflow="visible"/><path fill="#f17f53" style="isolation:auto;mix-blend-mode:normal" d="m 23.351491,1037.3149 a 0.9432348,0.95045376 0 0 1 -0.943234,0.9505 0.9432348,0.95045376 0 0 1 -0.943235,-0.9505 0.9432348,0.95045376 0 0 1 0.943235,-0.9504 0.9432348,0.95045376 0 0 1 0.943234,0.9504 z" color="#000" overflow="visible"/><path fill="#576d7e" style="isolation:auto;mix-blend-mode:normal" d="M13.002091 1041.9886a1.4104859 1.4105334 0 0 1-1.410486 1.4106 1.4104859 1.4105334 0 0 1-1.410486-1.4106 1.4104859 1.4105334 0 0 1 1.410486-1.4105 1.4104859 1.4105334 0 0 1 1.410486 1.4105zM21.935136 1041.9886a1.4104859 1.4105334 0 0 1-1.410485 1.4106 1.4104859 1.4105334 0 0 1-1.410486-1.4106 1.4104859 1.4105334 0 0 1 1.410486-1.4105 1.4104859 1.4105334 0 0 1 1.410485 1.4105z" color="#000" overflow="visible"/><path fill="#373748" fill-rule="evenodd" style="line-height:normal;text-indent:0;text-align:start;text-decoration-line:none;text-decoration-style:solid;text-decoration-color:#000;text-transform:none;block-progression:tb;isolation:auto;mix-blend-mode:normal" d="M14.412109 1038.1973a.50005.50005 0 1 0 0 1l.941407 0a.50005.50005 0 1 0 0-1l-.941407 0zM17.234375 1038.1973a.50005.50005 0 1 0 0 1l.939453 0a.50005.50005 0 1 0 0-1l-.939453 0zM16.318359 1020.3633a.50005.50005 0 0 0-.492187.5058l0 2.8106a.50005.50005 0 0 0 .5.5l1.873047 0c.343427 0 .537112.1111.679687.2715.142575.1604.226563.3945.226563.6347 0 .2402-.08399.4725-.226563.6329-.142575.1603-.33626.2714-.679687.2714l-3.748047 0c-.593427 0-1.099934.2409-1.425781.6075-.325848.3665-.478516.8364-.478516 1.2988 0 .4624.152668.9303.478516 1.2969.325847.3665.832354.6074 1.425781.6074l1.375 0 0 3.248a.50005.50005 0 1 0 1 0l0-3.748a.50005.50005 0 0 0-.5-.5l-1.875 0c-.343423 0-.53711-.1111-.679688-.2715-.142577-.1604-.224609-.3926-.224609-.6328 0-.2402.08203-.4744.224609-.6348.142578-.1604.336265-.2715.679688-.2715l3.748047 0c.593423 0 1.101884-.2408 1.427734-.6074.32585-.3666.478516-.8344.478516-1.2969 0-.4624-.152666-.9322-.478516-1.2988-.32585-.3666-.834311-.6074-1.427734-.6074l-1.373047 0 0-2.3106a.50005.50005 0 0 0-.507813-.5058z" color="#000" font-family="sans-serif" font-weight="400" overflow="visible"/></g></svg>