<svg xmlns="http://www.w3.org/2000/svg" data-name="Layer 1" viewBox="0 0 32 32"><path fill="#d9d9db" d="M3.5,10.966V4.644a1,1,0,0,1,1-1h2a1,1,0,0,1,1,1V8.411Z"/><path fill="#54bbe8" d="M28.5,13.207V29.644a2,2,0,0,1-2,2H5.5a2,2,0,0,1-2-2V13.207l12.5-8Z"/><circle cx="16" cy="19.865" r="6" fill="#fedc55"/><path fill="#90c871" d="M28.877,14.249,16.54,6.329a1,1,0,0,0-1.08,0L3.123,14.249A1.7,1.7,0,0,1,.5,12.815h0a1.7,1.7,0,0,1,.786-1.435L14.923,2.67a2,2,0,0,1,2.153,0l13.637,8.71a1.7,1.7,0,0,1,.786,1.435h0A1.7,1.7,0,0,1,28.877,14.249Z"/><path d="M17.061,27.732l-.561.561V25.5a.5.5,0,0,0-1,0v2.793l-.561-.561a.5.5,0,0,0-.707.707l1.413,1.413a.5.5,0,0,0,.708,0l1.413-1.413a.5.5,0,0,0-.707-.707ZM16.5,22.288h-1a1,1,0,0,1-1-1,.5.5,0,0,0-1,0,2,2,0,0,0,2,2v.5a.5.5,0,1,0,1,0v-.5a2,2,0,0,0,0-4h-1a1,1,0,0,1,0-2h1a1,1,0,0,1,1,1,.5.5,0,1,0,1,0,2,2,0,0,0-2-2v-.5a.5.5,0,0,0-1,0v.5a2,2,0,0,0,0,4h1a1,1,0,0,1,0,2ZM30.983,10.814,17.346,2.1a2.507,2.507,0,0,0-2.691,0L8,6.355V4.5A1.5,1.5,0,0,0,6.5,3h-2A1.5,1.5,0,0,0,3,4.5V9.548L1.017,10.814a2.2,2.2,0,0,0,.13,3.79A2.16,2.16,0,0,0,3,14.71V29.5A2.5,2.5,0,0,0,5.5,32h21A2.5,2.5,0,0,0,29,29.5V14.706a2.163,2.163,0,0,0,.795.173,2.2,2.2,0,0,0,1.059-.274,2.2,2.2,0,0,0,.13-3.79ZM4,4.5A.5.5,0,0,1,4.5,4h2a.5.5,0,0,1,.5.5V6.993L4,8.909Zm24,25A1.5,1.5,0,0,1,26.5,31H5.5A1.5,1.5,0,0,1,4,29.5V14.136l11.73-7.53a.5.5,0,0,1,.539,0L28,14.136Zm2.374-15.773a1.187,1.187,0,0,1-1.227-.043L16.811,5.765a1.507,1.507,0,0,0-1.621,0L2.853,13.684A1.2,1.2,0,0,1,1,12.671a1.2,1.2,0,0,1,.556-1.014L15.193,2.948a1.5,1.5,0,0,1,1.613,0l13.638,8.709a1.2,1.2,0,0,1-.07,2.07ZM9.5,19.788a6.477,6.477,0,0,0,4.336,6.123.5.5,0,1,0,.328-.944,5.5,5.5,0,1,1,3.672,0,.5.5,0,0,0,.164.972.5.5,0,0,0,.164-.028A6.5,6.5,0,1,0,9.5,19.788Z"/></svg>