<svg xmlns="http://www.w3.org/2000/svg" width="64" height="64" viewBox="0 0 64 64"><g transform="translate(0 -988.362)"><path fill="#54c972" d="m -496.98256,877.79633 21.00009,0 c 1.10797,0 1.99995,0.89198 1.99995,1.99995 l 0,34.00009 c 0,1.10798 -0.89198,1.99996 -1.99995,1.99996 l -21.00009,0 c -1.10797,0 -1.99995,-0.89198 -1.99995,-1.99996 l 0,-34.00009 c 0,-1.10797 0.89198,-1.99995 1.99995,-1.99995 z" transform="rotate(-30)"/><path style="line-height:normal;text-indent:0;text-align:start;text-decoration-line:none;text-decoration-style:solid;text-decoration-color:#000;text-transform:none;block-progression:tb;isolation:auto;mix-blend-mode:normal" d="m 8.2490047,1008.2526 c -1.1919281,0.6882 -1.6032286,2.2231 -0.9150637,3.4151 l 16.999999,29.4448 c 0.688165,1.192 2.223135,1.6032 3.415063,0.9151 l 18.186534,-10.5 c 1.191928,-0.6882 1.603229,-2.2231 0.915064,-3.4151 L 29.850602,998.66766 c -0.688165,-1.19194 -2.223135,-1.60323 -3.415064,-0.91507 L 8.2490047,1008.2526 Z m 0.4999999,0.866 18.1865334,-10.49998 c 0.727133,-0.41981 1.629229,-0.17809 2.049039,0.54904 l 16.999999,29.44484 c 0.419809,0.7272 0.178094,1.6293 -0.549039,2.0491 l -18.186533,10.5 c -0.727133,0.4198 -1.629229,0.1781 -2.049039,-0.5491 L 8.1999665,1011.1677 c -0.41981,-0.7272 -0.1780941,-1.6293 0.5490381,-2.0491 z" color="#000" font-family="sans-serif" font-weight="400" overflow="visible"/><path fill="#eee" d="m -495.30252,879.79633 17.64007,0 c 0.9307,0 1.67997,0.79809 1.67997,1.78943 l 0,30.42121 c 0,0.99135 -0.74927,1.78944 -1.67997,1.78944 l -17.64007,0 c -0.9307,0 -1.67996,-0.79809 -1.67996,-1.78944 l 0,-30.42121 c 0,-0.99134 0.74926,-1.78943 1.67996,-1.78943 z" transform="rotate(-30)"/><path fill="#54c972" d="m -494.46261,880.79633 15.96007,0 c 0.84206,0 1.51997,0.75114 1.51997,1.68418 l 0,28.63177 c 0,0.93303 -0.67791,1.68418 -1.51997,1.68418 l -15.96007,0 c -0.84206,0 -1.51996,-0.75115 -1.51996,-1.68418 l 0,-28.63177 c 0,-0.93304 0.6779,-1.68418 1.51996,-1.68418 z" transform="rotate(-30)"/><path fill-rule="evenodd" style="line-height:normal;text-indent:0;text-align:start;text-decoration-line:none;text-decoration-style:solid;text-decoration-color:#000;text-transform:none;block-progression:tb;isolation:auto;mix-blend-mode:normal" d="m 23.763672,1013.7812 a 0.50005,0.50005 0 0 0 -0.445313,0.3575 l -1.714843,5.7675 c -0.286899,0.9483 -0.181572,2.0266 0.269531,2.9317 0.449904,0.9026 1.298135,1.6429 2.435547,1.7441 0.771884,0.093 1.56488,-0.081 2.25,-0.4668 0.01302,-0.01 0.03003,-3e-4 0.04297,-0.01 a 0.50005,0.50005 0 0 0 0.181641,-0.1816 c 0.374237,-0.2359 0.692824,-0.5134 0.923828,-0.8516 0.194899,0.4881 0.412078,0.9969 0.548828,1.4317 0.232417,0.7389 0.309389,1.3655 0.220703,1.6816 a 0.50005,0.50005 0 0 0 0.732422,0.5684 l 2.769532,-1.5977 a 0.50005,0.50005 0 0 0 -0.126954,-0.918 c -0.310787,-0.079 -0.853528,-0.4668 -1.40625,-1.0312 -0.336634,-0.3438 -0.680234,-0.7878 -1.023437,-1.207 1.668294,-0.1853 3.038163,-1.3264 3.271484,-2.9102 0.19175,-0.9569 -0.09154,-1.8606 -0.658203,-2.5371 -0.569478,-0.6799 -1.402764,-1.154 -2.341797,-1.3828 a 0.50005,0.50005 0 0 0 -0.0039,0 l -5.775391,-1.377 a 0.50005,0.50005 0 0 0 -0.15039,-0.014 z m 0.378906,1.0958 5.316406,1.2675 c 0.757974,0.1857 1.406994,0.571 1.810547,1.0528 0.404393,0.4827 0.582311,1.0395 0.445313,1.707 a 0.50005,0.50005 0 0 0 -0.0059,0.031 c -0.191066,1.3515 -1.586187,2.3846 -3.255859,2.1055 a 0.50005,0.50005 0 0 0 -0.5625,0.3555 0.50005,0.50005 0 0 0 -0.566406,0.2988 c -0.257245,0.6303 -0.65008,1.256 -1.195313,1.5156 a 0.50005,0.50005 0 0 0 -0.06836,0.039 c -0.498593,0.2781 -1.089867,0.4092 -1.638672,0.3418 a 0.50005,0.50005 0 0 0 -0.01953,-0 c -0.765831,-0.065 -1.299666,-0.5308 -1.632813,-1.1992 -0.333147,-0.6684 -0.41208,-1.5273 -0.208984,-2.1972 a 0.50005,0.50005 0 0 0 0,-0 l 1.582031,-5.3144 z m 4.435547,7.6738 c 0.379953,0.4684 0.755257,0.9539 1.152344,1.3594 0.352762,0.3602 0.730149,0.5166 1.09375,0.7578 l -1.480469,0.8554 c -0.03498,-0.4335 0.01405,-0.8452 -0.134766,-1.3183 -0.167817,-0.5335 -0.405887,-1.0969 -0.630859,-1.6543 z" color="#000" font-family="sans-serif" font-weight="400" overflow="visible"/><path fill="#7ca0bb" d="m 227.34516,974.00061 21.00008,0 c 1.10798,0 1.99996,0.89198 1.99996,1.99996 l 0,34.00013 c 0,1.1079 -0.89198,1.9999 -1.99996,1.9999 l -21.00008,0 c -1.10798,0 -1.99996,-0.892 -1.99996,-1.9999 l 0,-34.00013 c 0,-1.10798 0.89198,-1.99996 1.99996,-1.99996 z" transform="scale(-1 1) rotate(15)"/><path fill="#eee" d="m 229.02519,976.00055 17.64008,0 c 0.93069,0 1.67996,0.79809 1.67996,1.78944 l 0,30.42121 c 0,0.9913 -0.74927,1.7894 -1.67996,1.7894 l -17.64008,0 c -0.9307,0 -1.67996,-0.7981 -1.67996,-1.7894 l 0,-30.42121 c 0,-0.99135 0.74926,-1.78944 1.67996,-1.78944 z" transform="scale(-1 1) rotate(15)"/><path fill="#7ca0bb" d="m 229.86521,977.00049 15.96007,0 c 0.84206,0 1.51997,0.75114 1.51997,1.68418 l 0,28.63173 c 0,0.9331 -0.67791,1.6842 -1.51997,1.6842 l -15.96007,0 c -0.84206,0 -1.51996,-0.7511 -1.51996,-1.6842 l 0,-28.63173 c 0,-0.93304 0.6779,-1.68418 1.51996,-1.68418 z" transform="scale(-1 1) rotate(15)"/><path style="line-height:normal;text-indent:0;text-align:start;text-decoration-line:none;text-decoration-style:solid;text-decoration-color:#000;text-transform:none;block-progression:tb;isolation:auto;mix-blend-mode:normal" d="m 32.361251,999.17019 c 1.329433,-0.35622 2.705642,0.43834 3.061863,1.76781 l 8.799847,32.8414 c 0.356213,1.3294 -0.438334,2.7057 -1.767767,3.0619 l -20.284442,5.4352 c -1.329443,0.3562 -2.70565,-0.4384 -3.061863,-1.7678 l -8.799847,-32.8414 c -0.3562203,-1.3295 0.438334,-2.7057 1.767767,-3.0619 l 20.284442,-5.43521 z m 0.25882,0.96591 -20.284443,5.4352 c -0.81102,0.2173 -1.277972,1.0261 -1.06066,1.8371 l 8.799847,32.8415 c 0.217279,0.8109 1.026097,1.278 1.837118,1.0607 l 20.284442,-5.4352 c 0.811011,-0.2173 1.277939,-1.0262 1.06066,-1.8371 l -8.799847,-32.8415 c -0.217312,-0.811 -1.026097,-1.278 -1.837117,-1.0607 z" color="#000" font-family="sans-serif" font-weight="400" overflow="visible"/><path fill-rule="evenodd" style="line-height:normal;text-indent:0;text-align:start;text-decoration-line:none;text-decoration-style:solid;text-decoration-color:#000;text-transform:none;block-progression:tb;isolation:auto;mix-blend-mode:normal" d="m 25.628906,1013.9277 a 0.50005,0.50005 0 0 0 -0.425781,0.2383 l -3.111328,5.0606 a 0.50005,0.50005 0 0 0 -0.002,0 c -0.502191,0.8258 -0.755779,1.7513 -0.677735,2.6348 0.07766,0.879 0.51593,1.7188 1.328125,2.2597 1.284403,0.9553 3.060244,0.7937 4.371094,-0.2539 0.05371,0.5385 0.125843,1.0938 0.13086,1.5743 0.0082,0.7899 -0.101936,1.4485 -0.265626,1.7246 a 0.50005,0.50005 0 0 0 0.558594,0.7382 l 3.089844,-0.8281 a 0.50005,0.50005 0 0 0 0.115234,-0.9199 c -0.286269,-0.1609 -0.675055,-0.6589 -1.033203,-1.3457 -0.210804,-0.4043 -0.417607,-0.9173 -0.625,-1.4004 0.404665,0.076 0.827976,0.047 1.261719,-0.053 a 0.50005,0.50005 0 0 0 0.25,0 c 0.01398,-0 0.02123,-0.02 0.03516,-0.024 l 0.002,0 c 0.757613,-0.2112 1.441766,-0.6494 1.921875,-1.2617 0.733844,-0.8761 0.808617,-2.0001 0.488282,-2.957 -0.321056,-0.9591 -1.007331,-1.7961 -1.88086,-2.2637 l -0.002,0 -5.291015,-2.8652 a 0.50005,0.50005 0 0 0 -0.238282,-0.061 z m 0.179688,1.1641 4.875,2.6406 a 0.50005,0.50005 0 0 0 0.002,0 c 0.617356,0.3301 1.169184,0.993 1.40625,1.7011 0.237065,0.7082 0.188835,1.4143 -0.306641,2.002 a 0.50005,0.50005 0 0 0 -0.01367,0.016 c -0.342135,0.4389 -0.854139,0.7696 -1.408203,0.9239 a 0.50005,0.50005 0 0 0 -0.06836,0.018 c -0.569172,0.202 -1.288729,0.038 -1.916016,-0.2265 a 0.50005,0.50005 0 0 0 -0.613281,0.1894 0.50005,0.50005 0 0 0 -0.648437,0.1465 c -0.983292,1.378 -2.702219,1.633 -3.792969,0.8125 a 0.50005,0.50005 0 0 0 -0.02344,-0.019 c -0.568829,-0.3751 -0.837158,-0.8942 -0.892578,-1.5215 -0.05542,-0.6273 0.130664,-1.359 0.537109,-2.0274 l 2.863282,-4.6562 z m 2.287109,8.5625 c 0.235698,0.5548 0.465321,1.1239 0.724609,1.6211 0.229069,0.4393 0.554537,0.6943 0.835938,1.0254 l -1.650391,0.4433 c 0.08658,-0.4277 0.241593,-0.8063 0.236329,-1.3105 -0.0059,-0.5689 -0.08367,-1.178 -0.146485,-1.7793 z" color="#000" font-family="sans-serif" font-weight="400" overflow="visible"/><path fill="#ff5a5c" d="m 16.766544,1003.8621 21.000086,0 c 1.107976,0 1.999956,0.892 1.999956,2 l 0,34.0001 c 0,1.1079 -0.89198,1.9999 -1.999956,1.9999 l -21.000086,0 c -1.107975,0 -1.999956,-0.892 -1.999956,-1.9999 l 0,-34.0001 c 0,-1.108 0.891981,-2 1.999956,-2 z"/><path fill="#eee" d="m 18.446582,1005.8621 17.640072,0 c 0.930699,0 1.679963,0.7981 1.679963,1.7895 l 0,30.4212 c 0,0.9913 -0.749264,1.7894 -1.679963,1.7894 l -17.640072,0 c -0.9307,0 -1.679963,-0.7981 -1.679963,-1.7894 l 0,-30.4212 c 0,-0.9914 0.749263,-1.7895 1.679963,-1.7895 z"/><path fill="#ff5a5c" d="m 19.286601,1006.862 15.960066,0 c 0.842062,0 1.519967,0.7511 1.519967,1.6842 l 0,28.6318 c 0,0.933 -0.677905,1.6841 -1.519967,1.6841 l -15.960066,0 c -0.842062,0 -1.519967,-0.7511 -1.519967,-1.6841 l 0,-28.6318 c 0,-0.9331 0.677905,-1.6842 1.519967,-1.6842 z"/><path fill="#5d7789" d="m 44.219038,1028.8622 6.999949,0 c 1.662014,0 3.000025,1.338 3.000025,3 l 0,7 c 0,1.662 -1.338011,3 -3.000025,3 l -6.999949,0 c -1.662014,0 -3.000025,-1.338 -3.000025,-3 l 0,-7 c 0,-1.662 1.338011,-3 3.000025,-3 z"/><path fill="#eee" d="M48.718998 1035.3621a.99999988.99999988 0 0 1-1 1 .99999988.99999988 0 0 1-1-1 .99999988.99999988 0 0 1 1-1 .99999988.99999988 0 0 1 1 1zM45.219059 1031.8622a.99999988.99999988 0 0 1-1 1 .99999988.99999988 0 0 1-1-1 .99999988.99999988 0 0 1 1-1 .99999988.99999988 0 0 1 1 1zM52.219051 1038.8621a.99999988.99999988 0 0 1-1 1 .99999988.99999988 0 0 1-1-1 .99999988.99999988 0 0 1 1-1 .99999988.99999988 0 0 1 1 1z"/><path fill="#5d7789" d="m 752.13473,681.64966 6.99995,0 c 1.66201,0 3.00002,1.33801 3.00002,3.00002 l 0,6.99995 c 0,1.66202 -1.33801,3.00003 -3.00002,3.00003 l -6.99995,0 c -1.66201,0 -3.00003,-1.33801 -3.00003,-3.00003 l 0,-6.99995 c 0,-1.66201 1.33802,-3.00002 3.00003,-3.00002 z" transform="rotate(45)"/><path fill="#eee" d="M756.6347 688.14966a.99999988.99999988 0 0 1-1 1 .99999988.99999988 0 0 1-1-1 .99999988.99999988 0 0 1 1-1 .99999988.99999988 0 0 1 1 1zM753.13464 684.64972a.99999988.99999988 0 0 1-1 1 .99999988.99999988 0 0 1-1-1 .99999988.99999988 0 0 1 1-1 .99999988.99999988 0 0 1 1 1zM760.13464 684.64972a.99999988.99999988 0 0 1-1 1 .99999988.99999988 0 0 1-1-1 .99999988.99999988 0 0 1 1-1 .99999988.99999988 0 0 1 1 1zM753.13464 691.64972a.99999988.99999988 0 0 1-1 1 .99999988.99999988 0 0 1-1-1 .99999988.99999988 0 0 1 1-1 .99999988.99999988 0 0 1 1 1zM760.13464 691.64972a.99999988.99999988 0 0 1-1 1 .99999988.99999988 0 0 1-1-1 .99999988.99999988 0 0 1 1-1 .99999988.99999988 0 0 1 1 1z" transform="rotate(45)"/><path style="line-height:normal;text-indent:0;text-align:start;text-decoration-line:none;text-decoration-style:solid;text-decoration-color:#000;text-transform:none;block-progression:tb;isolation:auto;mix-blend-mode:normal" d="m 44.21875,1028.3613 c -1.930363,0 -3.5,1.5697 -3.5,3.5 l 0,7 c 0,1.9304 1.569637,3.5 3.5,3.5 l 7,0 c 1.930363,0 3.5,-1.5696 3.5,-3.5 l 0,-7 c 0,-1.9303 -1.569637,-3.5 -3.5,-3.5 l -7,0 z m 0,1 7,0 c 1.393665,0 2.5,1.1064 2.5,2.5 l 0,7 c 0,1.3937 -1.106335,2.5 -2.5,2.5 l -7,0 c -1.393665,0 -2.5,-1.1063 -2.5,-2.5 l 0,-7 c 0,-1.3936 1.106335,-2.5 2.5,-2.5 z" color="#000" font-family="sans-serif" font-weight="400" overflow="visible"/><path style="line-height:normal;text-indent:0;text-align:start;text-decoration-line:none;text-decoration-style:solid;text-decoration-color:#000;text-transform:none;block-progression:tb;isolation:auto;mix-blend-mode:normal" d="M47.71875 1033.8613c-.822505 0-1.5.6775-1.5 1.5 0 .8225.677495 1.5 1.5 1.5.822505 0 1.5-.6775 1.5-1.5 0-.8225-.677495-1.5-1.5-1.5zm0 1c.282065 0 .5.218.5.5 0 .2821-.217935.5-.5.5-.282065 0-.5-.2179-.5-.5 0-.282.217935-.5.5-.5zM44.21875 1030.3613c-.822505 0-1.5.6775-1.5 1.5 0 .8225.677495 1.5 1.5 1.5.822505 0 1.5-.6775 1.5-1.5 0-.8225-.677495-1.5-1.5-1.5zm0 1c.282065 0 .5.218.5.5 0 .2821-.217935.5-.5.5-.282065 0-.5-.2179-.5-.5 0-.282.217935-.5.5-.5zM51.21875 1037.3613c-.822505 0-1.5.6775-1.5 1.5 0 .8225.677495 1.5 1.5 1.5.822505 0 1.5-.6775 1.5-1.5 0-.8225-.677495-1.5-1.5-1.5zm0 1c.282065 0 .5.218.5.5 0 .2821-.217935.5-.5.5-.282065 0-.5-.2179-.5-.5 0-.282.217935-.5.5-.5zM50.193536 1013.4857c-1.364977-1.365-3.584776-1.365-4.949747 0l-4.949748 4.9497c-1.364977 1.365-1.364977 3.5848 0 4.9497l4.949748 4.9498c1.364971 1.365 3.58477 1.365 4.949747 0l4.949748-4.9498c1.36497-1.3649 1.36497-3.5847 0-4.9497l-4.949748-4.9497zm-.707106.7071l4.949747 4.9497c.985459.9855.985466 2.5501 0 3.5355l-4.949747 4.9498c-.985474.9855-2.550075.9854-3.535534 0l-4.949748-4.9498c-.985466-.9854-.985473-2.55 0-3.5355l4.949748-4.9497c.985466-.9855 2.550067-.9855 3.535534 0z" color="#000" font-family="sans-serif" font-weight="400" overflow="visible"/><path style="line-height:normal;text-indent:0;text-align:start;text-decoration-line:none;text-decoration-style:solid;text-decoration-color:#000;text-transform:none;block-progression:tb;isolation:auto;mix-blend-mode:normal" d="M48.779323 1019.8496c-.581603-.5816-1.539725-.5816-2.121321 0-.581602.5816-.581602 1.5397 0 2.1213.581596.5816 1.539718.5816 2.121321 0 .581595-.5816.581595-1.5397 0-2.1213zm-.707107.7071c.199447.1995.199447.5077 0 .7071-.199454.1995-.50766.1995-.707107 0-.199453-.1994-.199453-.5076 0-.7071.199447-.1994.507653-.1994.707107 0zM48.779323 1014.8999c-.581603-.5816-1.539725-.5816-2.121321 0-.581602.5816-.581602 1.5397 0 2.1213.581596.5816 1.539718.5816 2.121321 0 .581595-.5816.581595-1.5397 0-2.1213zm-.707107.7071c.199447.1994.199447.5076 0 .7071-.199454.1994-.50766.1994-.707107 0-.199453-.1995-.199453-.5077 0-.7071.199447-.1995.507653-.1995.707107 0zM53.72907 1019.8496c-.581602-.5816-1.539725-.5816-2.12132 0-.581602.5816-.581602 1.5397 0 2.1213.581595.5816 1.539718.5816 2.12132 0 .581596-.5816.581596-1.5397 0-2.1213zm-.707107.7071c.199447.1995.199447.5077 0 .7071-.199453.1995-.50766.1995-.707106 0-.199454-.1994-.199454-.5076 0-.7071.199446-.1994.507653-.1994.707106 0zM43.829575 1019.8496c-.581602-.5816-1.539725-.5816-2.12132 0-.581602.5816-.581602 1.5397 0 2.1213.581595.5816 1.539718.5816 2.12132 0 .581596-.5816.581596-1.5397 0-2.1213zm-.707106.7071c.199446.1995.199446.5077 0 .7071-.199454.1995-.507661.1995-.707107 0-.199454-.1994-.199454-.5076 0-.7071.199446-.1994.507653-.1994.707107 0zM48.779323 1024.7994c-.581603-.5816-1.539725-.5816-2.121321 0-.581602.5816-.581602 1.5397 0 2.1213.581596.5816 1.539718.5816 2.121321 0 .581595-.5816.581595-1.5397 0-2.1213zm-.707107.7071c.199447.1994.199447.5076 0 .7071-.199454.1994-.50766.1994-.707107 0-.199453-.1995-.199453-.5077 0-.7071.199447-.1995.507653-.1995.707107 0zM16.765625 1003.3613c-1.376332 0-2.5 1.1237-2.5 2.5l0 34c0 1.3763 1.123668 2.5 2.5 2.5l21.001953 0c1.376333 0 2.498047-1.1237 2.498047-2.5l0-34c0-1.3763-1.121714-2.5-2.498047-2.5l-21.001953 0zm0 1l21.001953 0c.839619 0 1.498047.6604 1.498047 1.5l0 34c0 .8396-.658428 1.5-1.498047 1.5l-21.001953 0c-.839618 0-1.5-.6604-1.5-1.5l0-34c0-.8396.660382-1.5 1.5-1.5z" color="#000" font-family="sans-serif" font-weight="400" overflow="visible"/><path fill="#eee" fill-rule="evenodd" d="m 27.218104,1016.3571 -4.369814,4.1378 c -1.234281,1.1564 -1.618394,3.5413 -0.04649,4.6367 0.543648,0.4105 1.235944,0.6389 1.93115,0.6374 l 0,-0.011 c 0.803565,0.064 1.557883,-0.367 2.139439,-0.8182 -0.25285,1.7925 -0.456869,3.6985 -1.204951,4.4293 l 3.197556,0 c -0.732321,-0.7154 -1.06594,-2.6815 -1.31161,-4.4403 1.500057,1.2361 3.558199,1.0364 4.584227,-0.2748 1.104567,-1.2441 0.660283,-3.0057 -0.60412,-4.2138 z"/><path fill-rule="evenodd" style="line-height:normal;text-indent:0;text-align:start;text-decoration-line:none;text-decoration-style:solid;text-decoration-color:#000;text-transform:none;block-progression:tb;isolation:auto;mix-blend-mode:normal" d="m 27.197266,1015.8574 a 0.50005,0.50005 0 0 0 -0.322266,0.1367 l -4.371094,4.1387 c -0.72224,0.6777 -1.168587,1.6628 -1.230468,2.6719 -0.06178,1.0074 0.300495,2.0741 1.236328,2.7305 0.622236,0.4668 1.397055,0.713 2.183593,0.7207 0.01479,10e-5 0.02622,0.014 0.04102,0.014 a 0.50005,0.50005 0 0 0 0.240234,-0.064 c 0.445927,-0.016 0.862472,-0.098 1.234375,-0.2774 -0.07531,0.5206 -0.143172,1.0704 -0.242187,1.5157 -0.168161,0.7561 -0.413571,1.3389 -0.648438,1.5683 a 0.50005,0.50005 0 0 0 0.34961,0.8574 l 3.197265,0 a 0.50005,0.50005 0 0 0 0.34961,-0.8574 c -0.22953,-0.2242 -0.506634,-0.8306 -0.703125,-1.5957 -0.119629,-0.4658 -0.193685,-1.0222 -0.28125,-1.5566 1.538231,0.6734 3.295783,0.3701 4.289062,-0.8867 0.643404,-0.7326 0.849658,-1.6569 0.697266,-2.5254 -0.153265,-0.8736 -0.639073,-1.7015 -1.337891,-2.3692 a 0.50005,0.50005 0 0 0 -0.002,-0 l -4.314453,-4.0821 a 0.50005,0.50005 0 0 0 -0.365234,-0.1367 z m 0.02148,1.1895 3.970703,3.7558 c 0.564366,0.54 0.932318,1.1969 1.041016,1.8164 0.108836,0.6204 -0.0144,1.1936 -0.466797,1.7032 a 0.50005,0.50005 0 0 0 -0.01953,0.023 c -0.841228,1.075 -2.566609,1.2738 -3.873047,0.1973 a 0.50005,0.50005 0 0 0 -0.664063,0.025 0.50005,0.50005 0 0 0 -0.640625,-0.024 c -0.537954,0.4174 -1.191188,0.7628 -1.792968,0.7149 a 0.50005,0.50005 0 0 0 -0.07227,0 c -0.574019,-0.01 -1.154362,-0.1927 -1.597656,-0.5274 a 0.50005,0.50005 0 0 0 -0.01563,-0.012 c -0.630631,-0.4395 -0.862119,-1.1081 -0.816407,-1.8535 0.04571,-0.7454 0.407095,-1.5292 0.917969,-2.0078 a 0.50005,0.50005 0 0 0 0.002,-0 l 4.027344,-3.8105 z m 0.0059,8.8613 c 0.09498,0.5969 0.17689,1.205 0.31836,1.7559 0.125515,0.4887 0.37383,0.8141 0.568359,1.205 l -1.708984,0 c 0.186301,-0.3928 0.433397,-0.7231 0.541015,-1.207 0.121738,-0.5474 0.197157,-1.1571 0.28125,-1.7539 z" color="#000" font-family="sans-serif" font-weight="400" overflow="visible"/></g></svg>