<svg xmlns="http://www.w3.org/2000/svg" enable-background="new 0 0 64 64" viewBox="0 0 64 64"><path fill="#4de2c9" d="M56.4,4.7v46.3H19.8V1h32.9C54.7,1,56.4,2.7,56.4,4.7z"/><rect width="22.5" height="8" x="26.8" y="13.1" fill="#fff"/><path fill="#ff787d" d="M19.8,1h-6.2c-3.3,0-6,2.7-6,6V57c0-3.3,2.7-6,6-6h6.2V1z"/><path fill="#fff" d="M56.4,63c-2.3-4-2.2-8,0-12.1H13.6c-3.3,0-6,2.7-6,6l0,0c0,3.3,2.7,6,6,6L56.4,63z"/><line x1="19.8" x2="54.7" y1="57" y2="57" fill="none"/><path fill="#33226e" d="M13.6,64h42.7c0.4,0,0.7-0.2,0.9-0.5c0.2-0.3,0.2-0.7,0-1c-2.1-3.7-2.1-7.3,0-11.1l0,0c0.1-0.1,0.1-0.3,0.1-0.5V4.7c0-2.6-2.1-4.7-4.7-4.7C38,0,27.6,0,13.6,0c-3.9,0-7,3.2-7,7c0,0,0,49.9,0,49.9C6.6,60.8,9.8,64,13.6,64z M20.8,2h31.9c1.5,0,2.7,1.2,2.7,2.7v45.3H20.8V2z M8.6,7c0-2.8,2.3-5,5-5h5.2v47.9h-5.2c-2,0-3.7,0.8-5,2.1C8.6,52.1,8.6,7,8.6,7z M8.6,57L8.6,57c0-2.8,2.3-5,5-5l41.1,0c-0.6,1.3-0.9,2.7-1,4H19.8c-0.6,0-1,0.4-1,1s0.4,1,1,1h33.9c0.1,1.3,0.4,2.7,1,4H13.6C10.9,62,8.6,59.7,8.6,57L8.6,57z"/><path fill="#33226e" d="M49.4,12.1H26.8c-0.6,0-1,0.4-1,1v8c0,0.6,0.4,1,1,1h22.5c0.6,0,1-0.4,1-1v-8C50.4,12.6,49.9,12.1,49.4,12.1z M48.4,20.2H27.8v-6h20.5V20.2z"/></svg>