<svg xmlns="http://www.w3.org/2000/svg" enable-background="new 0 0 512 512" viewBox="0 0 512 512"><path fill="#f96464" d="M446.206,452.209l-62.435,32.443c-14.55-4.58-28.238-4.849-40.579,2.048c-20.1,23.334-45.806,23.01-87.192,22.417c-41.387,0.593-67.092,0.916-87.192-22.417c-12.34-6.898-26.028-6.629-40.579-2.048l-62.435-32.443c-11.617-6.037-17.257-19.582-13.285-32.057c31.233-98.098,75.571-178.743,144.536-226.662v-39.5c0.647-37.938-12.071-68.816-34.327-94.845c-5.982-7.059-7.868-16.759-5.658-25.867c2.209-8.945,6.143-16.652,12.071-22.58C178.4,1.43,192.95,0.19,204.105,7.25C222.427,18.836,239.079,32.039,256,33.44c16.921-1.401,33.573-14.604,51.895-26.19c11.155-7.059,25.705-5.82,34.974,3.449c5.928,5.928,9.862,13.634,12.071,22.58c2.21,9.107,0.323,18.807-5.658,25.867c-22.256,26.028-34.974,56.907-34.327,94.845v39.5c68.965,47.919,113.304,128.564,144.536,226.662C463.463,432.627,457.823,446.173,446.206,452.209z"/><path fill="#fff" d="M182.118,255.461c-4.473,4.904-8.73,9.97-12.772,15.035c-3.622,4.644-10.424,5.478-15.143,1.778c-4.634-3.718-5.443-10.454-1.778-15.143c4.311-5.443,8.945-10.885,13.688-16.167c3.988-4.419,10.778-4.742,15.197-0.754C185.729,244.199,186.106,251.042,182.118,255.461z" opacity=".4"/><path d="M446.228,452.216l-62.457,32.441c-4.15-1.293-8.191-2.263-12.233-2.802l57.122-29.639c11.586-6.036,17.245-19.616,13.257-32.064c-31.202-98.078-75.553-178.75-144.53-226.657v-39.5c-0.647-37.938,12.071-68.816,34.327-94.845c5.982-7.059,7.868-16.759,5.658-25.867c-2.209-8.945-6.143-16.652-12.071-22.58c-3.072-3.072-6.736-5.281-10.724-6.574c9.808-3.18,20.801-0.916,28.292,6.574c5.928,5.928,9.862,13.634,12.071,22.58c2.21,9.107,0.323,18.807-5.658,25.867c-22.256,26.028-34.974,56.907-34.327,94.845v39.5c68.978,47.907,113.328,128.58,144.53,226.657C463.473,432.601,457.814,446.181,446.228,452.216z" opacity=".08"/><path fill="#ea4e4e" d="M209.548 313.609c-22.472 64.667-39.016 124.645-40.74 173.092-12.34-6.898-26.028-6.629-40.579-2.048C140.947 417.615 168.268 360.762 209.548 313.609zM383.771 484.652c-14.55-4.58-28.238-4.849-40.579 2.048-1.724-48.447-18.215-108.425-40.74-173.092C343.731 360.762 371.053 417.615 383.771 484.652z"/><path fill="#f2f0f0" d="M314.954,153.99v39.5c-39.285,13.203-78.624,13.203-117.909,0v-39.5C235.199,165.198,274.592,164.606,314.954,153.99z"/><path d="M461.98,419.359c-34.7-108.987-81.945-183.334-144.414-227.231c3.019-30.147-11.746-78.136,33.708-131.294c13.065-15.416,6.287-39.135-6.558-51.981c-10.093-10.093-25.811-11.663-38.216-3.81c-54.437,34.375-47.436,33.822-100.998,0c-12.403-7.849-28.121-6.288-38.216,3.81c-12.876,12.876-19.67,36.511-6.551,51.988c45.655,53.396,30.883,103.146,33.7,131.287C131.965,236.022,84.72,310.371,50.02,419.359c-4.368,13.719,1.759,28.508,14.57,35.169c15.613,8.112,46.84,24.336,62.453,32.448c0.561,0.287,1.391,0.353,1.969,0.168c12.997-4.093,26.265-4.848,38.172,1.668c20.885,23.884,47.974,23.5,88.777,22.916c37.419,0.536,67.246,1.796,88.854-22.917c12.003-6.567,25.174-5.762,38.171-1.667c0.567,0.181,1.398,0.123,1.968-0.168c96.393-50.081,48.65-25.276,62.454-32.448C460.22,447.867,466.348,433.078,461.98,419.359z M199.656,157.448c35.485,9.761,73.36,9.731,112.687-0.092v34.246c-37.398,12.179-75.29,12.179-112.687,0V157.448z M164.709,57.457c-11.14-13.15-4.751-33.894,6.268-44.912c8.351-8.354,21.402-9.626,31.734-3.091c55.548,35.142,49.758,35.947,106.578,0c10.332-6.536,23.383-5.261,31.734,3.091c11.076,11.076,17.391,31.783,6.275,44.902c-23.696,27.712-35.119,58.665-34.948,94.499c-39.425,10.051-77.315,10.066-112.701,0.052C199.824,116.118,188.4,85.162,164.709,57.457z M131.608,480.963c11.839-59.105,35.666-111.142,70.927-154.943c-22.552,66.827-34.126,116.966-36.161,156.544C155.323,477.659,143.257,477.922,131.608,480.963z M345.626,482.564c-2.04-39.744-13.612-89.886-36.143-156.524c35.248,43.795,59.072,95.83,70.909,154.922C368.824,477.945,356.642,477.674,345.626,482.564z M445.002,449.892l-59.37,30.851c-12.935-65.222-40.224-122.03-81.217-168.854c-1.897-2.154-5.364-0.108-4.429,2.581c25.971,74.555,38.858,129.013,40.543,171.26c-19.246,21.673-43.916,21.355-84.568,20.777c-40.568,0.582-65.246,0.899-84.491-20.777c1.676-42.045,14.563-96.502,40.543-171.262c0.939-2.699-2.553-4.729-4.429-2.578c-40.992,46.823-68.282,103.632-81.217,168.854l-59.37-30.851c-10.549-5.482-15.595-17.656-12-28.947C89.349,313.05,135.977,239.58,197.504,196.371c38.368,12.61,77.54,12.966,116.992,0c61.529,43.211,108.157,116.679,142.506,224.574C460.598,432.236,455.552,444.41,445.002,449.892z"/></svg>