<svg xmlns="http://www.w3.org/2000/svg" viewBox="0 0 48 48"><rect width="4" height="10" x="43" y="19" fill="#bfbfbf"/><path fill="#bfbfbf" d="M23 12h2a0 0 0 0 1 0 0V36a0 0 0 0 1 0 0H23a2 2 0 0 1-2-2V14A2 2 0 0 1 23 12zM28 4H40a2 2 0 0 1 2 2V8a0 0 0 0 1 0 0H26a0 0 0 0 1 0 0V6A2 2 0 0 1 28 4z"/><rect width="11" height="16" x="6" y="16" fill="#bfbfbf"/><path fill="#424242" d="M47,18H44V15a2,2,0,0,0-2-2H40V9h2a1,1,0,0,0,1-1V6a3,3,0,0,0-3-3H28a3,3,0,0,0-3,3V8a1,1,0,0,0,1,1h2v4H26V12a1,1,0,0,0-1-1H23a3,3,0,0,0-3,3v4H18V16a1,1,0,0,0-1-1H4a4,4,0,0,0-4,4V29a4,4,0,0,0,4,4H17a1,1,0,0,0,1-1V30h2v4a3,3,0,0,0,3,3h2a1,1,0,0,0,1-1V35h2v5a1,1,0,0,0,2,0V35h8v5a1,1,0,0,0,2,0V35h2a2,2,0,0,0,2-2V30h3a1,1,0,0,0,1-1V19A1,1,0,0,0,47,18ZM5,31H4a2,2,0,0,1-2-2V19a2,2,0,0,1,2-2H5Zm11,0H7V29h9Zm0-4H7V25h9Zm0-4H7V21h9Zm0-4H7V17h9Zm4,9H18V20h2Zm4,7H23a1,1,0,0,1-1-1V14a1,1,0,0,1,1-1h1ZM27,7V6a1,1,0,0,1,1-1H40a1,1,0,0,1,1,1V7ZM38,9v4H30V9Zm4,24H26V15H42Zm4-5H44V20h2Z"/><path fill="#bfbfbf" d="M39 31H29a1 1 0 0 1 0-2H39a1 1 0 0 1 0 2zM39 27H29a1 1 0 0 1 0-2H39a1 1 0 0 1 0 2zM39 23H29a1 1 0 0 1 0-2H39a1 1 0 0 1 0 2zM39 19H29a1 1 0 0 1 0-2H39a1 1 0 0 1 0 2z"/><path fill="#fc6459" d="M23,39H45a3,3,0,0,1,3,3v3a0,0,0,0,1,0,0H20a0,0,0,0,1,0,0V42A3,3,0,0,1,23,39Z"/></svg>