<svg xmlns="http://www.w3.org/2000/svg" data-name="Layer 1" viewBox="0 0 512 512"><path fill="#fdd8ae" d="M296.35312,207.26077l96.16654,96.16654a25,25,0,0,1,0,35.35531l0,0a25,25,0,0,1-35.3553,0l-53.74013-53.74013"/><path fill="#fdd8ae" d="M154.93176,348.68213,133.0805,326.83086A100.2265,100.2265,0,0,1,104.02,248.27305V248.273L195.944,156.34906h0a100.22658,100.22658,0,0,1,78.55783,29.06046l21.85126,21.85126,47.25305,59.27231L226.931,366.68288Z"/><path fill="#fdd8ae" d="M303.42419,285.04252l53.74013,53.74013a25,25,0,0,1,0,35.3553l0,0a25,25,0,0,1-35.35531,0l-53.74013-53.74013"/><path fill="#fbbf7d" d="M357.16431,359.1377v.00048a25.00061,25.00061,0,0,1-35.35523,0l-38.74024-38.74024a10.60659,10.60659,0,0,0-15,0h0l53.74023,53.74023a25.00061,25.00061,0,0,0,35.35523,0v-.00048a24.99149,24.99149,0,0,0,6.16943-25.17725A24.87843,24.87843,0,0,1,357.16431,359.1377Z"/><path fill="#fdd8ae" d="M268.06885,320.39786,321.809,374.138a25,25,0,0,1,0,35.3553l0,0a25,25,0,0,1-35.35531,0L232.71351,355.7532"/><path fill="#fbbf7d" d="M321.4153 394.87851c-9.89092 9.47191-25.70475 8.87159-35.38843-.81209l-38.3135-38.3135a10.60659 10.60659 0 0 0-15 0h0l53.30724 53.30724c9.76792 9.76793 25.754 10.2788 35.615.6048a24.99077 24.99077 0 0 0 6.34265-25.34954A24.89367 24.89367 0 0 1 321.4153 394.87851zM392.13105 324.16793c-9.89091 9.47191-25.70475 8.87159-35.38843-.81209l-38.3135-38.3135a10.60659 10.60659 0 0 0-15 0h0l53.30724 53.30724c9.76793 9.76793 25.754 10.2788 35.615.6048a24.99077 24.99077 0 0 0 6.34265-25.34954A24.89367 24.89367 0 0 1 392.13105 324.16793z"/><path fill="#fdd8ae" d="M232.71351,355.7532l53.74013,53.74013a25,25,0,0,1,0,35.3553l0,0a25,25,0,0,1-35.35531,0l-96.16654-96.16654"/><path fill="#fbbf7d" d="M286.45361,429.84863a24.99971,24.99971,0,0,1-35.35522,0l-79.66663-79.6665-16.5-1.5,96.16663,96.1665a24.999,24.999,0,0,0,41.52466-25.17773A24.88525,24.88525,0,0,1,286.45361,429.84863Z"/><path fill="#227fc0" d="M192.76,159.53,107.2,245.08984a29.984,29.984,0,0,1-42.41992,0l-7.93994-7.93994L7.5,187.82007l127.99-127.99,57.27,57.27A29.99657,29.99657,0,0,1,192.76,159.53Z"/><path fill="#fbbf7d" d="M209.38727,382.29679h.00005a25,25,0,0,1,25,25v23.28412a25,25,0,0,1-25,25h0a25,25,0,0,1-25-25V407.29677a25,25,0,0,1,25-25Z" transform="rotate(45 209.387 418.939)"/><path fill="#fbbf7d" d="M174.03193,346.94145h.00005a25,25,0,0,1,25,25v23.28411a25,25,0,0,1-25,25h-.00005a25,25,0,0,1-25-25V371.94143A25,25,0,0,1,174.03193,346.94145Z" transform="rotate(45 174.032 383.583)"/><path fill="#fbbf7d" d="M138.6766,311.58611h.00005a25,25,0,0,1,25,25V359.8702a25,25,0,0,1-25,25h-.00005a25,25,0,0,1-25-25V336.58609A25,25,0,0,1,138.6766,311.58611Z" transform="rotate(45 138.677 348.228)"/><path fill="#fbbf7d" d="M103.32126,276.23077h0a25,25,0,0,1,25,25v23.28411a25,25,0,0,1-25,25h-.00005a25,25,0,0,1-25-25V301.23075A25,25,0,0,1,103.32126,276.23077Z" transform="rotate(45 103.321 312.873)"/><path fill="#fbbf7d" d="M312.10211,148.14633H293.01227a45.69405,45.69405,0,0,0-34.05322,15.22608l-59.311,66.29223a15.79809,15.79809,0,0,0,.60254,21.70459,35.05588,35.05588,0,0,0,49.57617,0l45.31739-45.31738q40.98926,40.9889,81.978,81.97778a103.543,103.543,0,0,0,41.40137-51.49Q365.31306,192.34312,312.10211,148.14633Z"/><path fill="#eb304a" d="M504.5,187.82007l-48.72,48.70972L447.22,245.08984a29.984,29.984,0,0,1-42.41992,0L319.24,159.53a29.99657,29.99657,0,0,1,0-42.42993l57.27-57.27Z"/><path fill="#e4222e" d="M455.78,236.52979,447.22,245.08984a29.984,29.984,0,0,1-42.41992,0L319.24,159.53a29.99657,29.99657,0,0,1,0-42.42993l9.88989-9.89014Z"/><path fill="#2370b5" d="M192.76,159.53,107.2,245.08984a29.984,29.984,0,0,1-42.41992,0l-7.93994-7.93994L183.33008,108.01l.51.16992L192.76,117.1001A29.99657,29.99657,0,0,1,192.76,159.53Z"/><path fill="#3c3b41" d="M509.80371,182.51191a7.50317,7.50317,0,0,0-10.60742,0l-43.35864,43.3584L339.6836,107.26679,381.81738,65.133A7.50058,7.50058,0,1,0,371.21,54.52558L313.93457,111.801a37.41378,37.41378,0,0,0-10.88476,28.84961h-10.04a53.24642,53.24642,0,0,0-39.6377,17.7168L251.9148,159.996a107.92457,107.92457,0,0,0-44.32837-11.35693,37.525,37.525,0,0,0-9.521-36.83814L140.79,54.52558A7.50058,7.50058,0,0,0,130.18262,65.133l42.75952,42.75952L56.78845,226.49677,12.80371,182.51191A7.50058,7.50058,0,0,0,2.19629,193.11933l48.03137,48.03125a7.27426,7.27426,0,0,0,2.629,2.62891l6.615,6.61523a37.5549,37.5549,0,0,0,36.83643,9.52149,107.56608,107.56608,0,0,0,1.65039,15.20605,32.34491,32.34491,0,0,0-9.38623,6.53711L72.10742,298.12421a32.50049,32.50049,0,0,0,22.98145,55.48145c1.01172,0,2.01538-.05078,3.01074-.1416a32.47546,32.47546,0,0,0,32.34473,35.49707c1.01172,0,2.01538-.05078,3.01074-.1416a32.47689,32.47689,0,0,0,32.34473,35.49707c1.01171,0,2.01538-.05078,3.01074-.1416a32.49885,32.49885,0,0,0,55.32617,25.97753l10.8291-10.8291,10.83008,10.83008A32.50294,32.50294,0,0,0,301.27735,427.174c0-1.00733-.0503-2.00684-.14039-2.99756.99.08984,1.98853.14014,2.99488.14014a32.50338,32.50338,0,0,0,32.5-32.501c0-1.00684-.0503-2.00537-.14014-2.99561.99.08985,1.98828.14014,2.99463.14014a32.50171,32.50171,0,0,0,32.501-32.5c0-1.00635-.0503-2.00488-.14014-2.99463.99.08985,1.98828.14014,2.99463.14014a32.5,32.5,0,0,0,22.98144-55.48145l-9.09057-9.09033a109.83676,109.83676,0,0,0,26.6416-29.20312,37.59617,37.59617,0,0,0,37.154-9.436l57.27539-57.27539A7.50139,7.50139,0,0,0,509.80371,182.51191ZM70.0791,239.7873l-2.6831-2.68311,116.15381-118.604,3.9082,3.9082a22.52367,22.52367,0,0,1,0,31.81934L101.89844,239.7873A22.52368,22.52368,0,0,1,70.0791,239.7873Zm25.00977,98.81836a17.50049,17.50049,0,0,1-12.374-29.874l16.46484-16.46485a17.49986,17.49986,0,1,1,24.749,24.748l-16.46582,16.46484A17.38583,17.38583,0,0,1,95.08887,338.60566Zm35.35547,35.35547a17.50146,17.50146,0,0,1-12.375-29.875l16.46582-16.46387a17.49986,17.49986,0,0,1,24.749,24.74805l-16.46582,16.46484A17.38583,17.38583,0,0,1,130.44434,373.96113Zm35.35547,35.35547a17.38584,17.38584,0,0,1-12.374-5.126v-.001a17.51988,17.51988,0,0,1-.001-24.748l16.46582-16.46485a17.49951,17.49951,0,1,1,24.74707,24.749l-16.46387,16.46484A17.38583,17.38583,0,0,1,165.79981,409.3166Zm64.19336,13.76465-16.4629,16.46386a17.49985,17.49985,0,1,1-24.749-24.748l16.46387-16.46387a17.49951,17.49951,0,1,1,24.74805,24.74805Zm162.3496-101.97559a17.49951,17.49951,0,0,1-29.875,12.373l-53.74023-53.73926a7.50058,7.50058,0,1,0-10.60742,10.60742l53.74023,53.73926a17.49951,17.49951,0,1,1-24.748,24.748l-53.73926-53.74024a7.50058,7.50058,0,0,0-10.60742,10.60742l53.73925,53.74024a17.49916,17.49916,0,1,1-24.74707,24.748l-53.74023-53.74023a7.50093,7.50093,0,1,0-10.61133,10.60449l53.74024,53.74024a17.49917,17.49917,0,1,1-24.74317,24.75195l-11.37305-11.373a32.50341,32.50341,0,0,0-27.41113-49.96679c-1.00635,0-2.00464.05029-2.99463.14013.08985-.98974.14014-1.98828.14014-2.99463a32.50336,32.50336,0,0,0-32.5-32.501c-1.01172,0-2.01563.05078-3.01074.1416a32.45292,32.45292,0,0,0-35.35669-35.33887,32.43576,32.43576,0,0,0-31.22876-35.47021,92.57788,92.57788,0,0,1-1.3208-20.688c.39087-.35889.77942-.72168,1.1582-1.10059l85.55957-85.55957c.37915-.37915.74243-.76806,1.10181-1.15918,1.46679-.06909,2.9519-.11621,4.46264-.11621a92.87323,92.87323,0,0,1,37.85987,8.08838l-47.4292,53.01221a23.31139,23.31139,0,0,0,.88672,32.01367,42.60778,42.60778,0,0,0,60.18652-.001l40.00684-40.01562,22.83593,22.834q26.92237,26.91943,53.83887,53.8418l.021.019,15.38037,15.3794A17.38579,17.38579,0,0,1,392.34277,321.10566Zm2.416-58.38281a96.08205,96.08205,0,0,1-16.73437,15.60449q-24.71925-24.728-49.44239-49.44336l-28.13867-28.1377a7.50082,7.50082,0,0,0-10.60742.001L244.52735,246.0666a27.59143,27.59143,0,0,1-38.97364,0,8.30357,8.30357,0,0,1-.31347-11.40528l59.30957-66.29a38.22858,38.22858,0,0,1,28.46-12.7207h14.18652a37.361,37.361,0,0,0,6.73828,9.18457l85.55957,85.55957c.83277.83252,1.699,1.61182,2.58789,2.34961A95.38446,95.38446,0,0,1,394.75879,262.72285ZM441.9209,239.7873a22.52368,22.52368,0,0,1-31.81934,0L324.542,154.22773a22.52368,22.52368,0,0,1,0-31.81934l4.53394-4.53393L445.23,236.47822Z"/></svg>