<svg xmlns="http://www.w3.org/2000/svg" data-name="Layer 1" viewBox="0 0 512 512"><path fill="#66c1ff" d="M153.17,199.4a36.3,36.3,0,0,0,49.53,31.16,6.94,6.94,0,0,1,9.46,6.49v62.24h-62.1a7,7,0,0,0-6.47,9.5,36.3,36.3,0,1,1-67.51,0,7,7,0,0,0-6.48-9.48H7.5V139A44.88,44.88,0,0,1,52.32,94.08H202.16a10,10,0,0,1,10,10v52.25a6.93,6.93,0,0,1-9.44,6.5,36.31,36.31,0,0,0-49.55,36.57Z"/><path fill="#ffe966" d="M271.42,404.45a36.32,36.32,0,0,1-49.76,31.23,6.94,6.94,0,0,0-9.5,6.47V504.5H52.32A44.88,44.88,0,0,1,7.5,459.56V299.29H69.6a7,7,0,0,1,6.47,9.5,36.3,36.3,0,1,0,67.51,0,7,7,0,0,1,6.48-9.48h62.1v62.34a6.94,6.94,0,0,0,9.46,6.5,36.31,36.31,0,0,1,49.8,36.32Z"/><path fill="#f66" d="M406.83,299.29a10,10,0,0,1,10,10V459.56A44.88,44.88,0,0,1,372,504.5H212.16V442.15a6.94,6.94,0,0,1,9.5-6.47,36.41,36.41,0,1,0,0-67.55,6.94,6.94,0,0,1-9.46-6.5V299.29h62.32a6.94,6.94,0,0,0,6.46-9.52,36.31,36.31,0,1,1,67.11,0,6.94,6.94,0,0,0,6.46,9.52Z"/><path fill="#ff4e4e" d="M320.8 275.85a36.41 36.41 0 0 1-2.75 13.92 6.94 6.94 0 0 0 6.46 9.52h30a6.94 6.94 0 0 1-6.46-9.52 36.33 36.33 0 0 0-48.55-47.06A36.41 36.41 0 0 1 320.8 275.85zM386.83 299.29V459.56A44.88 44.88 0 0 1 342 504.5h30a44.88 44.88 0 0 0 44.82-44.94V309.29a10 10 0 0 0-10-10z"/><path fill="#63ea86" d="M504.5,52.44V202.71a10,10,0,0,1-10,10H442.19a7,7,0,0,1-6.47-9.52,36.3,36.3,0,1,0-67.11,0,6.94,6.94,0,0,1-6.46,9.52H309.84a10,10,0,0,1-10-10V150.47a6.94,6.94,0,0,0-9.47-6.49,36.4,36.4,0,1,1,0-67.73,6.93,6.93,0,0,0,9.44-6.5V17.5a10,10,0,0,1,10-10H459.68A44.88,44.88,0,0,1,504.5,52.44Z"/><path fill="#3ce568" d="M262.64 143.51a35.72 35.72 0 0 0 4.82 1.7A6.87 6.87 0 0 0 262.64 143.51zM267.48 75a37.25 37.25 0 0 0-4.89 1.72A6.91 6.91 0 0 0 267.48 75zM459.68 7.5h-30A44.88 44.88 0 0 1 474.5 52.44V212.71h20a10 10 0 0 0 10-10V52.44A44.88 44.88 0 0 0 459.68 7.5z"/><path fill="#272a33" d="M459.68,0H309.84a17.52,17.52,0,0,0-17.5,17.5V69a43.45,43.45,0,0,0-15.29-2.75,43.9,43.9,0,1,0,15.29,85.05v51.45a17.52,17.52,0,0,0,17.5,17.5h52.31a14.45,14.45,0,0,0,13.4-19.88,28.8,28.8,0,1,1,53.24,0,14.3,14.3,0,0,0,1.35,13.44,14.45,14.45,0,0,0,12.05,6.44H494.5a17.52,17.52,0,0,0,17.5-17.5V52.44A52.44,52.44,0,0,0,459.68,0ZM497,202.71a2.5,2.5,0,0,1-2.5,2.5H443a43.8,43.8,0,1,0-81.64,0H309.84a2.5,2.5,0,0,1-2.5-2.5V150.47A14.45,14.45,0,0,0,287.61,137,28.62,28.62,0,0,1,275,138.94,28.93,28.93,0,0,1,256,90.4a28.78,28.78,0,0,1,31.65-7.18,14.44,14.44,0,0,0,19.71-13.47V17.5a2.5,2.5,0,0,1,2.5-2.5H459.68A37.42,37.42,0,0,1,497,52.44ZM408.7,29.15H396.54a22,22,0,0,0-22,22,7.5,7.5,0,0,0,15,0,7,7,0,0,1,7-7H408.7a7,7,0,0,1,7,7V57.7a7,7,0,0,1-7,7,17.9,17.9,0,0,0-17.88,17.88V93.22a7.5,7.5,0,0,0,15,0V82.58a2.88,2.88,0,0,1,2.88-2.88,22,22,0,0,0,22-22V51.15A22,22,0,0,0,408.7,29.15Zm-10.53,86.92a7.5,7.5,0,1,0,7.5,7.5A7.49,7.49,0,0,0,398.17,116.07Zm8.66,175.72H355.32a43.81,43.81,0,1,0-81.65,0h-54V237.05a14.44,14.44,0,0,0-19.72-13.47,28.9,28.9,0,1,1,0-53.78,14.43,14.43,0,0,0,19.7-13.47V104.08a17.52,17.52,0,0,0-17.5-17.5H52.32A52.44,52.44,0,0,0,0,139V459.56A52.44,52.44,0,0,0,52.32,512H372a52.45,52.45,0,0,0,52.32-52.44V309.29A17.53,17.53,0,0,0,406.83,291.79ZM15,139a37.42,37.42,0,0,1,37.32-37.44H202.16a2.5,2.5,0,0,1,2.5,2.5v51.46a43.35,43.35,0,0,0-15.28-2.75,43.9,43.9,0,1,0,15.28,85.05v54h-54.6a14.13,14.13,0,0,0-3.51.44l-.26.08c-.48.13-.95.27-1.41.44-.25.1-.48.22-.73.33s-.58.25-.86.4a14.36,14.36,0,0,0-1.45.88l0,0a14.62,14.62,0,0,0-3.72,3.76,14.38,14.38,0,0,0-1.48,13.39c0,.05,0,.1,0,.14.17.42.32.85.46,1.28.06.17.11.34.17.52s.19.6.27.9.11.42.17.62.13.55.19.83l.15.66c.05.27.1.54.14.81l.12.68c0,.29.07.59.11.89s.05.39.07.59q.06.72.09,1.44c0,.18,0,.37,0,.56s0,.64,0,1,0,.46,0,.7,0,.6,0,.9,0,.53-.06.8,0,.4,0,.6-.07.51-.1.76l-.09.68c0,.13-.05.25-.07.38a29,29,0,0,1-19.66,22.53l-.22.07-.88.25-.53.14-.7.17-.75.16-.56.1c-.31.06-.63.11-.94.15l-.42.06c-.36.05-.73.09-1.09.12l-.33,0-.92.05-.59,0h-1.49l-1-.05c-.17,0-.35,0-.52,0s-.43,0-.65-.06l-.75-.08-.69-.1-.66-.1-.79-.15-.49-.11c-.31-.06-.62-.14-.93-.22l-.28-.07A29,29,0,0,1,81.48,327.3c0-.15-.06-.3-.08-.45s-.07-.43-.09-.65-.08-.53-.11-.79,0-.4,0-.59l-.06-.79c0-.31,0-.62,0-.93s0-.45,0-.68,0-.66,0-1,0-.36,0-.54c0-.48,0-1,.1-1.44,0-.2,0-.4.07-.6s.06-.59.11-.88.07-.46.11-.69.09-.53.14-.79l.15-.69c.06-.26.13-.53.19-.79l.17-.65.27-.87c0-.18.11-.37.17-.55.14-.42.29-.83.45-1.24l.06-.17a14.43,14.43,0,0,0-5.2-17.15l0,0a13.32,13.32,0,0,0-1.45-.88c-.28-.15-.57-.27-.86-.4s-.48-.23-.73-.33c-.46-.17-.93-.31-1.41-.44l-.25-.08a14.26,14.26,0,0,0-3.52-.44H15ZM211,430.14a14.49,14.49,0,0,0-6.38,12V497H52.32A37.42,37.42,0,0,1,15,459.56V306.79H68.8l0,.11c-.24.64-.46,1.28-.67,1.93l-.24.81c-.12.42-.25.83-.36,1.26l-.24,1c-.09.37-.17.74-.25,1.12s-.15.69-.21,1-.13.72-.19,1.08-.12.71-.17,1.06-.09.8-.14,1.19-.1,1-.14,1.51-.07,1-.09,1.49c0,.3,0,.6,0,.9s0,.64,0,1c0,.11,0,.22,0,.33,0,.4,0,.81,0,1.21s0,.71,0,1.07c0,.16,0,.32,0,.49,0,.42.07.84.11,1.26a2,2,0,0,1,0,.23,43.51,43.51,0,0,0,4.28,14.79l.15.31c.24.47.48.92.73,1.38l.36.66.34.57a44,44,0,0,0,7.9,9.87,43.34,43.34,0,0,0,22.55,11.13h.07c.59.1,1.18.18,1.78.26l.38,0c.51.06,1,.11,1.54.15l.26,0,.3,0c.52,0,1,.06,1.58.07l.79,0h1.46l.63,0c.55,0,1.11,0,1.68-.09h.06c.54,0,1.08-.1,1.62-.16l.42,0c.6-.07,1.19-.16,1.78-.25l.17,0a43.31,43.31,0,0,0,22.53-11.12,44.24,44.24,0,0,0,8-10c.09-.15.18-.29.26-.44s.27-.48.4-.73c.23-.43.47-.86.69-1.3l.18-.36c.29-.59.56-1.19.83-1.79l0,0a43.61,43.61,0,0,0,3.41-12.93c0-.08,0-.16,0-.24,0-.42.09-.84.12-1.26,0-.16,0-.33,0-.49,0-.35,0-.7,0-1.06s0-.82,0-1.23v-.32c0-.32,0-.63,0-.95s0-.61,0-.92c0-.48-.05-1-.09-1.43s-.09-1.06-.14-1.58-.09-.78-.14-1.17-.11-.71-.17-1.06-.11-.73-.18-1.09l-.21-1c-.08-.38-.17-.75-.26-1.13s-.15-.63-.24-1-.24-.85-.36-1.27c-.08-.26-.15-.53-.24-.8-.21-.64-.43-1.29-.67-1.93l0-.11h53.8v54.84a14.51,14.51,0,0,0,6.4,12,14.31,14.31,0,0,0,13.37,1.42,28.76,28.76,0,0,1,31.79,7.05,28.87,28.87,0,0,1-31.76,46.59A14.38,14.38,0,0,0,211,430.14Zm198.29,29.42A37.43,37.43,0,0,1,372,497H219.66V443c1,.36,1.9.67,2.86,1a43.9,43.9,0,1,0-2.86-83.07v-54h54.82a14.45,14.45,0,0,0,12-6.44,14.3,14.3,0,0,0,1.35-13.44,28.81,28.81,0,1,1,53.25,0,14.3,14.3,0,0,0,1.35,13.44,14.45,14.45,0,0,0,12,6.44h52.32a2.51,2.51,0,0,1,2.5,2.5Z"/></svg>