<svg xmlns="http://www.w3.org/2000/svg" viewBox="0 0 128 128"><g data-name="Layer 2"><circle cx="72" cy="68" r="52" fill="#f0f0ff"/><path fill="#cacadb" d="M71 104.0619V102a8.0089 8.0089 0 0 0-7.9521-8A141.3973 141.3973 0 0 1 54.7 61.8179 8.0137 8.0137 0 0 0 61 54V51.416a8.0125 8.0125 0 0 0 5-7.4166v-14a8.0092 8.0092 0 0 0-8-8H47.7528a51.9874 51.9874 0 0 0 30.07 97.6679A7.9876 7.9876 0 0 0 78 118v-6A8.013 8.013 0 0 0 71 104.0619zM113.3585 36.4913A52.3 52.3 0 0 0 103.1724 26.377L101.24 31.9693l-9.69 7.71a10.002 10.002 0 0 0-3.09 4.2L72.35 69.53l13.58-8.76 13.3-7.63a10.0472 10.0472 0 0 0 3.69-3.69l6.17-10.72z"/><circle cx="72" cy="68" r="32" fill="#8dc1f3"/><path fill="#7eaada" d="M63.0479 94A141.3973 141.3973 0 0 1 54.7 61.8179 8.0137 8.0137 0 0 0 61 54V51.416a8.0125 8.0125 0 0 0 5-7.4166V36.5717a31.9937 31.9937 0 0 0 4.7286 63.3959A8.0069 8.0069 0 0 0 63.0479 94zM100.04 52.5993a32.2378 32.2378 0 0 0-10.2042-11.155A9.9619 9.9619 0 0 0 88.46 43.88L72.35 69.53l13.58-8.76 13.3-7.63C99.5126 52.977 99.7762 52.7877 100.04 52.5993z"/><circle cx="72" cy="68" r="22" fill="#ffbd5a"/><path fill="#e4ad5d" d="M84.6191 49.9948L72.35 69.53l13.58-8.76 5.4678-3.1368A22.156 22.156 0 0 0 84.6191 49.9948zM50 68A22.0032 22.0032 0 0 0 60.4418 86.7082 141.3789 141.3789 0 0 1 54.7 61.8179 8.0137 8.0137 0 0 0 61 54V51.416a8.0283 8.0283 0 0 0 4.3857-4.3989A22.0383 22.0383 0 0 0 50 68z"/><circle cx="72" cy="68" r="12" fill="#ea5a6b"/><path fill="#c8556b" d="M79.2857,58.4866,72.35,69.53l10.4445-6.7374A12.0574,12.0574,0,0,0,79.2857,58.4866Z"/><path fill="#603913" d="M72,121a53,53,0,1,1,53-53A53.06,53.06,0,0,1,72,121ZM72,16.9993a51,51,0,1,0,51,51A51.0581,51.0581,0,0,0,72,16.9993ZM72,111a43,43,0,1,1,43-43A43.0489,43.0489,0,0,1,72,111Zm0-84.0006a41,41,0,1,0,41,41A41.0467,41.0467,0,0,0,72,26.9993ZM72,101a33,33,0,1,1,33-33A33.0375,33.0375,0,0,1,72,101Zm0-64a31,31,0,1,0,31,31A31.0351,31.0351,0,0,0,72,36.9994Zm0,54A23,23,0,1,1,95,68,23.026,23.026,0,0,1,72,91Zm0-44A21,21,0,1,0,93,68,21.0239,21.0239,0,0,0,72,47Zm0,34A13,13,0,1,1,85,68,13.0148,13.0148,0,0,1,72,81Zm0-24A11,11,0,1,0,83,68,11.0125,11.0125,0,0,0,72,57Z"/><path fill="#ffbd5a" d="M115.9943,7.9992,95.6567,27.1245l3.5145-13.8062a6.0559,6.0559,0,0,1,5.46-4.5411Z"/><path fill="#fed18c" d="M110.3587,8.385l-5.7276.3922a6.0558,6.0558,0,0,0-5.46,4.5411L95.6567,27.1245l4.9489-4.6539A15.3372,15.3372,0,0,1,110.3587,8.385Z"/><path fill="#ffbd5a" d="M116.1935,25.5872l-12.0562,7.65,11.857-25.2377,2.817,10.9984A6.0316,6.0316,0,0,1,116.1935,25.5872Z"/><path fill="#e4ad5d" d="M118.8113,18.9975l-1.3187-5.1484a18.7292,18.7292,0,0,1-3.0991,6.6639,18.282,18.282,0,0,1-7.0489,5.8972l-3.2073,6.8267,12.0562-7.65A6.0315,6.0315,0,0,0,118.8113,18.9975Z"/><polygon fill="#f0f0ff" points="71 70 79.427 54.951 82.702 57.311 71 70"/><path fill="#99db6e" d="M95.4344,48.53,82.7017,57.3111l-3.2744-2.36L83.8084,40.15a10.0617,10.0617,0,0,1,2.756-4.4737l29.43-27.6774L98.8347,44.52A10.0767,10.0767,0,0,1,95.4344,48.53Z"/><path fill="#84bf6f" d="M98.8347,44.52l8.0408-17.1134c-.2142.3071-.4248.6149-.6463.92-6.9957,9.64-16.0553,16.1375-24.342,18.3136l-2.46,8.31,3.2744,2.36L95.4344,48.53A10.0763,10.0763,0,0,0,98.8347,44.52Z"/><path fill="#603913" d="M119.78,18.7493,116.9629,7.7511l0,0a.9979.9979,0,0,0-1.0345-.7485l-.0023-.0006L104.5625,7.78a7.0422,7.0422,0,0,0-6.36,5.292l-3.4432,13.526L85.88,34.9481a11.0609,11.0609,0,0,0-3.03,4.9185L78.5,54.5617,70.1279,69.5109a1,1,0,0,0,1.6075,1.1665L83.3623,58.07l12.64-8.7173A11.0926,11.0926,0,0,0,99.74,44.9457l5.1775-11.0195L116.73,26.4315A7.0188,7.0188,0,0,0,119.78,18.7493ZM97.4727,24.0437,100.14,13.5651a5.0483,5.0483,0,0,1,4.56-3.79l8.57-.5864Zm-17.72,32.3744,1.4491,1.0445-5.18,5.6171ZM97.93,44.0952a9.0953,9.0953,0,0,1-3.0625,3.6113L82.7148,56.0874l-2.1269-1.5327,4.18-14.1207A9.0656,9.0656,0,0,1,87.25,36.4052l25.6086-24.084ZM115.6572,24.743l-9.1523,5.8076,7.578-16.1316,1.633-3.4756,2.1269,8.302A5.0234,5.0234,0,0,1,115.6572,24.743Z"/><rect width="68" height="10" x="4" y="110" fill="#8b5e3c" rx="2"/><path fill="#a97c50" d="M38.5,85.5h3a0,0,0,0,1,0,0v62a0,0,0,0,1,0,0h-3a4,4,0,0,1-4-4v-54A4,4,0,0,1,38.5,85.5Z" transform="rotate(90 38 116.5)"/><rect width="34" height="2" x="21" y="117" fill="#c49a6c" rx="1"/><path fill="#a97c50" d="M21,45.9995H55a0,0,0,0,1,0,0v8a2,2,0,0,1-2,2H23a2,2,0,0,1-2-2v-8A0,0,0,0,1,21,45.9995Z"/><rect width="22" height="2" x="27" y="50.999" fill="#c49a6c" rx="1"/><path fill="#8b5e3c" d="M21 46v8a2 2 0 0 0 2 2h1.4V53a4 4 0 0 1 4-4H47.6a4 4 0 0 1 4 4v3H53a2 2 0 0 0 2-2V46zM13 100H63a2 2 0 0 1 2 2v8a0 0 0 0 1 0 0H11a0 0 0 0 1 0 0v-8A2 2 0 0 1 13 100z"/><path fill="#a97c50" d="M34.5,79.5h3a4,4,0,0,1,4,4v40a4,4,0,0,1-4,4h-3a0,0,0,0,1,0,0v-48A0,0,0,0,1,34.5,79.5Z" transform="rotate(90 38 103.5)"/><rect width="22" height="2" x="27" y="101" fill="#c49a6c" rx="1"/><path fill="#8b5e3c" d="M48,56H28A147.596,147.596,0,0,1,17.5548,98.6482L17,100H59l-.5548-1.3516A147.596,147.596,0,0,1,48,56Z"/><path fill="#a97c50" d="M26.0961,89.7783C29.3684,79.3262,32.074,66.21,32.4961,56H43.5039c.4221,10.21,3.1277,23.3267,6.4,33.7788A4.0057,4.0057,0,0,1,46.0952,95h-16.19A4.0057,4.0057,0,0,1,26.0961,89.7783Z"/><path fill="#a97c50" d="M26.0961,89.7783C29.3684,79.3262,32.074,66.21,32.4961,56H43.5039c.4221,10.21,3.1277,23.3267,6.4,33.7788A4.0057,4.0057,0,0,1,46.0952,95h-16.19A4.0057,4.0057,0,0,1,26.0961,89.7783Z"/><rect width="16" height="2" x="30" y="90" fill="#c49a6c" rx="1"/><path fill="#a97c50" d="M52,29.9993v4a2,2,0,0,1-2,2H44a2,2,0,0,1-2-2v-4a2,2,0,0,0-2-2H36a2,2,0,0,0-2,2v4a2,2,0,0,1-2,2H26a2,2,0,0,1-2-2v-4a2,2,0,0,0-2-2H18a2,2,0,0,0-2,2v14a2,2,0,0,0,2,2H58a2,2,0,0,0,2-2v-14a2,2,0,0,0-2-2H54A2,2,0,0,0,52,29.9993Z"/><path fill="#c49a6c" d="M36 29.9993h4a2 2 0 0 1 2 2v-2a2 2 0 0 0-2-2H36a2 2 0 0 0-2 2v2A2 2 0 0 1 36 29.9993zM24 35.9994a2 2 0 0 0 2 2h6a2 2 0 0 0 2-2v-2a2 2 0 0 1-2 2H26a2 2 0 0 1-2-2zM42 35.9994a2 2 0 0 0 2 2h6a2 2 0 0 0 2-2v-2a2 2 0 0 1-2 2H44a2 2 0 0 1-2-2z"/><path fill="#8b5e3c" d="M58,27.9993H57v11a4,4,0,0,1-4,4H23a4,4,0,0,1-4-4v-11H18a2,2,0,0,0-2,2v14a2,2,0,0,0,2,2H58a2,2,0,0,0,2-2v-14A2,2,0,0,0,58,27.9993Z"/><path fill="#603913" d="M70,109H66v-7a3.0034,3.0034,0,0,0-3-3H59.67l-.3-.7314A146.4436,146.4436,0,0,1,49.116,57H53a3.0033,3.0033,0,0,0,3-3V47h2a3.0033,3.0033,0,0,0,3-3v-14a3.0033,3.0033,0,0,0-3-3H54a3.0033,3.0033,0,0,0-3,3v4a1.0009,1.0009,0,0,1-1,1H44a1.0009,1.0009,0,0,1-1-1v-4a3.0033,3.0033,0,0,0-3-3H36a3.0033,3.0033,0,0,0-3,3v4a1.0009,1.0009,0,0,1-1,1H26a1.0009,1.0009,0,0,1-1-1v-4a3.0033,3.0033,0,0,0-3-3H18a3.0033,3.0033,0,0,0-3,3v14a3.0033,3.0033,0,0,0,3,3h2v7a3.0033,3.0033,0,0,0,3,3h3.884A146.4436,146.4436,0,0,1,16.63,98.2684L16.33,99H13a3.0034,3.0034,0,0,0-3,3v7H6a3.0033,3.0033,0,0,0-3,3v6a3.0033,3.0033,0,0,0,3,3H70a3.0033,3.0033,0,0,0,3-3v-6A3.0033,3.0033,0,0,0,70,109Zm-53-65v-14a1.001,1.001,0,0,1,1-1h4a1.001,1.001,0,0,1,1,1v4a3.0033,3.0033,0,0,0,3,3h6a3.0033,3.0033,0,0,0,3-3v-4a1.001,1.001,0,0,1,1-1h4a1.001,1.001,0,0,1,1,1v4a3.0033,3.0033,0,0,0,3,3h6a3.0033,3.0033,0,0,0,3-3v-4a1.001,1.001,0,0,1,1-1h4a1.001,1.001,0,0,1,1,1v14a1.001,1.001,0,0,1-1,1H18A1.001,1.001,0,0,1,17,43.9994Zm5,10V47H54v7a1.0009,1.0009,0,0,1-1,1H23A1.0009,1.0009,0,0,1,22,54Zm6.91,3H47.09a148.4188,148.4188,0,0,0,10.419,42H18.4912A148.4188,148.4188,0,0,0,28.91,57ZM12,102a1.0009,1.0009,0,0,1,1-1H63a1.0009,1.0009,0,0,1,1,1v7H12Zm59,16a1.0009,1.0009,0,0,1-1,1H6a1.0009,1.0009,0,0,1-1-1v-6a1.001,1.001,0,0,1,1-1H70a1.001,1.001,0,0,1,1,1Z"/></g></svg>