<svg xmlns="http://www.w3.org/2000/svg" data-name="Layer 1" viewBox="0 0 64 64"><path d="M52.65 26L48.09 15.29a.51.51 0 0 0-.46-.3H16.36a.49.49 0 0 0-.45.3L11.33 26a.49.49 0 0 0 .05.47.47.47 0 0 0 .4.22H52.2a.5.5 0 0 0 .42-.22A.52.52 0 0 0 52.65 26zm-40.12-.29L16.69 16H47.31l4.15 9.71zM15.76 36.8L6.36 35a1.25 1.25 0 0 0-1 .26 1.27 1.27 0 0 0-.45 1v3.1A1.24 1.24 0 0 0 6 40.54l9.4.73h.1a1.25 1.25 0 0 0 .84-.33 1.27 1.27 0 0 0 .39-.92V38A1.23 1.23 0 0 0 15.76 36.8zm0 3.22a.26.26 0 0 1-.27.26L6.1 39.55a.25.25 0 0 1-.23-.25V36.2A.23.23 0 0 1 6 36 .19.19 0 0 1 6.12 36h0l9.41 1.81a.26.26 0 0 1 .2.26zM58.65 35.24a1.23 1.23 0 0 0-1-.26L48.22 36.8a1.23 1.23 0 0 0-1 1.22v2a1.31 1.31 0 0 0 .39.92 1.27 1.27 0 0 0 .84.33h.09L58 40.54A1.24 1.24 0 0 0 59.1 39.3V36.2A1.24 1.24 0 0 0 58.65 35.24zm-.53 4.06a.25.25 0 0 1-.23.25l-9.41.73a.24.24 0 0 1-.19-.07.26.26 0 0 1-.08-.19V38a.25.25 0 0 1 .2-.26L57.82 36A.25.25 0 0 1 58 36a.23.23 0 0 1 .1.19z"/><path d="M63.67,24.84a1.28,1.28,0,0,0-1-.45H58.42a1.32,1.32,0,0,0-1.32,1.32v1.78l-.48.74-.25-.1L50.21,13.76a2.19,2.19,0,0,0-2-1.33H15.8a2.23,2.23,0,0,0-2,1.33L7.63,28.13l-.27.1-.47-.74V25.71a1.32,1.32,0,0,0-1.32-1.32H1.31a1.32,1.32,0,0,0-1,.45A1.29,1.29,0,0,0,0,25.89l.21,1.62a1.61,1.61,0,0,0,1.61,1.41H4.39l.46.68A7,7,0,0,0,2.36,35V45.05a3.3,3.3,0,0,0,2.2,3.11v2.12a1.31,1.31,0,0,0,1.3,1.29h8a1.29,1.29,0,0,0,1.29-1.29V48.37H48.82v1.91a1.31,1.31,0,0,0,1.29,1.29h8a1.3,1.3,0,0,0,1.29-1.29V48.16a3.31,3.31,0,0,0,2.22-3.11V35a7,7,0,0,0-2.51-5.38l.47-.68h2.55a1.63,1.63,0,0,0,1.61-1.41L64,25.89A1.3,1.3,0,0,0,63.67,24.84Zm-49-10.68a1.2,1.2,0,0,1,1.12-.74H48.19a1.2,1.2,0,0,1,1.12.74l5.95,13.9H8.73Zm-10,13.77H1.84a.62.62,0,0,1-.63-.55L1,25.75a.34.34,0,0,1,.08-.27.32.32,0,0,1,.24-.11H5.57a.33.33,0,0,1,.33.34v1.93A.47.47,0,0,0,6,27.9l.44.67a6.41,6.41,0,0,0-.77.44l-.59-.86A.52.52,0,0,0,4.65,27.93Zm9.52,22.35a.29.29,0,0,1-.3.3h-8a.31.31,0,0,1-.31-.3V48.36h8.62Zm44.26,0a.3.3,0,0,1-.3.3h-8a.31.31,0,0,1-.3-.3V48.37h8.62ZM60.65,35V45.05a2.33,2.33,0,0,1-2.33,2.33H5.68a2.33,2.33,0,0,1-2.34-2.33V35a6.06,6.06,0,0,1,4.71-5.93H55.94A6.07,6.07,0,0,1,60.65,35Zm2.14-7.6a.62.62,0,0,1-.64.55H59.34a.48.48,0,0,0-.4.22l-.59.86a7.44,7.44,0,0,0-.78-.44L58,27.9a.47.47,0,0,0,.08-.26V25.71a.34.34,0,0,1,.34-.34h4.26a.33.33,0,0,1,.25.11.34.34,0,0,1,.08.27Z"/><path fill="#90a7d6" d="M6.42 28.57a6.41 6.41 0 0 0-.77.44l-.59-.86a.52.52 0 0 0-.41-.22H1.84a.62.62 0 0 1-.63-.55L1 25.75a.34.34 0 0 1 .08-.27.32.32 0 0 1 .24-.11H5.57a.33.33 0 0 1 .33.34v1.93A.47.47 0 0 0 6 27.9zM63 25.75l-.22 1.63a.62.62 0 0 1-.64.55H59.34a.48.48 0 0 0-.4.22l-.59.86a7.44 7.44 0 0 0-.78-.44L58 27.9a.47.47 0 0 0 .08-.26V25.71a.34.34 0 0 1 .34-.34h4.26a.33.33 0 0 1 .25.11A.34.34 0 0 1 63 25.75z"/><path fill="#adc0db" d="M58.43 48.36v1.92a.3.3 0 0 1-.3.3h-8a.31.31 0 0 1-.3-.3V48.37h8.62zM14.17 48.37v1.91a.29.29 0 0 1-.3.3h-8a.31.31 0 0 1-.31-.3V48.36h8.62z"/><polygon fill="#8dcff2" points="51.46 25.69 12.53 25.69 16.68 15.98 47.31 15.98 51.46 25.69"/><path fill="#f9d073" d="M58.12 36.2v3.1a.25.25 0 0 1-.23.25l-9.41.73a.24.24 0 0 1-.19-.07.26.26 0 0 1-.08-.19V38a.25.25 0 0 1 .2-.26L57.82 36A.25.25 0 0 1 58 36 .23.23 0 0 1 58.12 36.2zM15.78 38v2a.26.26 0 0 1-.27.26L6.1 39.55a.25.25 0 0 1-.23-.25V36.2A.23.23 0 0 1 6 36 .19.19 0 0 1 6.12 36h0l9.41 1.81A.26.26 0 0 1 15.78 38z"/><path d="M45.41,42.82l-1.69-6.45a1.34,1.34,0,0,0-1.3-1H21.57a1.35,1.35,0,0,0-1.3,1l-1.68,6.45a1.34,1.34,0,0,0,1.3,1.69H44.1A1.32,1.32,0,0,0,45.17,44,1.29,1.29,0,0,0,45.41,42.82Zm-1,.56a.36.36,0,0,1-.29.15H19.89a.38.38,0,0,1-.29-.15.33.33,0,0,1-.06-.3l1.68-6.46a.35.35,0,0,1,.35-.27H42.42a.36.36,0,0,1,.35.27l1.68,6.46A.33.33,0,0,1,44.39,43.38Z"/><path fill="#b8c5dc" d="M44.39,43.38a.36.36,0,0,1-.29.15H19.89a.38.38,0,0,1-.29-.15.33.33,0,0,1-.06-.3l1.68-6.46a.35.35,0,0,1,.35-.27H42.42a.36.36,0,0,1,.35.27l1.68,6.46A.33.33,0,0,1,44.39,43.38Z"/><path fill="#adc0db" d="M44.39,43.38a.36.36,0,0,1-.29.15H19.88a.38.38,0,0,1-.28-.15.33.33,0,0,1-.06-.3l.25-1,.09,0H44.1l.11,0,.24,1A.33.33,0,0,1,44.39,43.38Z"/><polygon fill="#78caf1" points="29.48 25.69 28.44 25.69 25.08 15.98 26.13 15.98 29.48 25.69"/><polygon fill="#78caf1" points="37.19 25.69 36.13 25.69 32.77 15.98 33.83 15.98 37.19 25.69"/></svg>